<svg xmlns="http://www.w3.org/2000/svg" style="display: none;">
    <symbol id="icon_adapterSocket" viewBox="0 0 1024 1024">
      <title>icon_adapterSocket icon</title>
      <path d="M512 12C236.3 12 12 236.3 12 512s224.3 500 500 500 500-224.3 500-500S787.7 12 512 12zm0 959.2c-253.2 0-459.2-206-459.2-459.2S258.8 52.8 512 52.8s459.2 206 459.2 459.2-206 459.2-459.2 459.2zM512 261.9c-15 0-27.2 12.2-27.2 27.2v186.2c0 15 12.2 27.2 27.2 27.2s27.2-12.2 27.2-27.2V289.1c0-15-12.2-27.2-27.2-27.2zM336.3 560.1c-7.5-13-24.2-17.5-37.2-10-13 7.5-17.5 24.1-10 37.2l93.1 161.2c5 8.7 14.2 13.6 23.6 13.6 4.6 0 9.3-1.2 13.6-3.6 13-7.5 17.5-24.1 10-37.2l-93.1-161.2zM724.8 550.1c-13-7.5-29.6-3-37.2 10l-93.1 161.2c-7.5 13-3.1 29.6 10 37.2 4.3 2.5 9 3.6 13.6 3.6 9.4 0 18.5-4.9 23.6-13.6l93.1-161.2c7.5-13 3-29.7-10-37.2zM714.9 307.1H691v-18c0-15-12.2-27.2-27.2-27.2s-27.2 12.2-27.2 27.2v186.2c0 15 12.2 27.2 27.2 27.2s27.2-12.2 27.2-27.2v-18h23.9c41.4 0 75-33.6 75-75 0-41.6-33.6-75.2-75-75.2zM333.1 457.2v18c0 15 12.2 27.2 27.2 27.2s27.2-12.2 27.2-27.2V289.1c0-15-12.2-27.2-27.2-27.2s-27.2 12.2-27.2 27.2v18h-23.9c-41.4 0-75 33.6-75 75s33.6 75 75 75h23.9z"/>
    </symbol>
    <symbol id="icon_airConditioning" viewBox="0 0 1024 1024">
      <title>icon_airConditioning icon</title>
      <path d="M949.5 168.3h-875c-34.4 0-62.5 28.1-62.5 62.5v275c0 34.4 28.1 62.5 62.5 62.5h875c34.4 0 62.5-28.1 62.5-62.5v-275c0-34.4-28.1-62.5-62.5-62.5zM74.5 212h875c10.2 0 18.8 8.6 18.8 18.8v211.5H55.8V230.8c0-10.2 8.5-18.8 18.7-18.8zm875 312.5h-875c-10.2 0-18.8-8.6-18.8-18.8V486h912.5v19.8c.1 10.1-8.5 18.7-18.7 18.7zM420.8 406.8h182.3c12.1 0 21.9-9.8 21.9-21.9 0-12.1-9.8-21.9-21.9-21.9H420.8c-12.1 0-21.9 9.8-21.9 21.9.1 12.1 9.9 21.9 21.9 21.9zM240.8 628.2c-9.4-4.1-20.4 0-24.6 9.4-4.2 9.4-.1 20.5 9.3 24.8.2.1 17.2 8.3 19.1 20.9 1.5 10.1-7 23.8-23.8 38.8-26.5 23.5-38.7 48.1-36.3 73.1 3.5 36.4 37.7 57.1 39.2 57.9 3 1.8 6.3 2.6 9.5 2.6 6.4 0 12.6-3.3 16.1-9.2 5.3-8.9 2.3-20.4-6.6-25.7-.2-.1-19.3-12.2-21-29.3-1.5-15.4 12.2-31.1 23.9-41.5 27.5-24.5 39.6-48.9 35.9-72.7-5-32.4-37.1-47.5-40.7-49.1zM426.7 628.2c-9.4-4.1-20.4 0-24.6 9.4-4.2 9.4-.1 20.5 9.3 24.8.2.1 17.2 8.3 19.1 20.9 1.5 10.1-7 23.8-23.8 38.8-26.5 23.5-38.7 48.1-36.3 73.1 3.5 36.4 37.7 57.1 39.2 57.9 3 1.8 6.3 2.6 9.5 2.6 6.4 0 12.6-3.3 16.1-9.2 5.3-8.9 2.3-20.4-6.6-25.7-.2-.1-19.3-12.2-21-29.3-1.5-15.4 12.2-31.1 23.9-41.5 27.5-24.5 39.6-48.9 35.9-72.7-5-32.4-37.1-47.5-40.7-49.1zM612.6 628.2c-9.4-4.1-20.4 0-24.6 9.4-4.2 9.4-.1 20.5 9.3 24.8.2.1 17.2 8.3 19.1 20.9 1.5 10.1-7 23.8-23.8 38.8-26.5 23.5-38.7 48.1-36.3 73.1 3.5 36.4 37.7 57.1 39.2 57.9 3 1.8 6.3 2.6 9.5 2.6 6.4 0 12.6-3.3 16.1-9.2 5.3-8.9 2.3-20.4-6.6-25.7-.2-.1-19.3-12.2-21-29.3-1.5-15.4 12.2-31.1 23.9-41.5 27.5-24.5 39.6-48.9 35.9-72.7-5-32.4-37.1-47.5-40.7-49.1zM798.5 628.2c-9.4-4.1-20.4 0-24.6 9.4-4.2 9.4-.1 20.5 9.3 24.8.2.1 17.2 8.3 19.1 20.9 1.5 10.1-7 23.8-23.8 38.8-26.5 23.5-38.7 48.1-36.3 73.1 3.5 36.4 37.7 57.1 39.2 57.9 3 1.8 6.3 2.6 9.5 2.6 6.4 0 12.6-3.3 16.1-9.2 5.3-8.9 2.3-20.4-6.6-25.7-.2-.1-19.3-12.2-21-29.3-1.5-15.4 12.2-31.1 23.9-41.5 27.5-24.5 39.6-48.9 35.9-72.7-5-32.4-37.1-47.5-40.7-49.1z"/>
    </symbol>
    <symbol id="icon_airQuality" viewBox="0 0 1024 1024">
      <title>icon_airQuality icon</title>
      <path d="M1007.8 186.2c-7.1-9.7-20.6-11.8-30.3-4.7l-101.6 74.4c-9.5-11.9-19.8-23.4-30.7-34.3-37.7-37.7-81.6-67.3-130.4-87.9-50.6-21.4-104.3-32.3-159.7-32.3-135.2 0-259.2 66.1-335.6 169.5-2.4 2.1-4.3 4.7-5.6 7.7-29.8 42.3-51.7 90.4-63.4 142.6L12.9 893.8c0 .1 0 .2-.1.3-.1.4-.2.8-.3 1.1-.1.3-.1.7-.2 1-.1.3-.1.7-.1 1 0 .4-.1.8-.1 1.1v2.5c0 12 9.7 21.7 21.7 21.7l533.8-.5c1.2 0 2.3-.1 3.5-.3 49.8-1.9 98.1-12.6 143.8-31.9 48.9-20.7 92.7-50.3 130.4-87.9 37.7-37.7 67.3-81.6 87.9-130.4 21.4-50.6 32.3-104.3 32.3-159.7 0-55.4-10.9-109.1-32.3-159.7-9-21.3-19.7-41.6-32-60.8l102-74.7c9.6-7.2 11.7-20.8 4.6-30.4zm-452.7-41.4c98 0 190.2 38.2 259.5 107.5 9.4 9.4 18.1 19.2 26.3 29.3l-65.7 48.2-499.4-59.5c68.9-77.4 170-125.5 279.3-125.5zM98.6 879.2l462.1-338.5-72.5 338.2-389.6.3zm27.6-219.5l172 19.5L72.3 844.6l53.9-184.9zm223.6-18.3l-211.3-24 53.7-184.5c.1-.2.1-.5.2-.7.1-.2.1-.4.2-.7 9.8-44.1 27.8-85 52.1-121.3l479.2 57.1-374.1 274.1zM922 511.8c0 98-38.2 190.2-107.5 259.5C745.2 840.6 653 878.8 555 878.8h-22.5l80.7-376.7 252.9-185.2c36.4 57.8 55.9 124.8 55.9 194.9z"/>
    </symbol>
    <symbol id="icon_airSupply" viewBox="0 0 1024 1024">
      <title>icon_airSupply icon</title>
      <path d="M653.5 627.1h-621c-11.4 0-20.5 9.2-20.5 20.5 0 11.4 9.2 20.5 20.5 20.5h621c52.3 0 94.9 42.6 94.9 94.9 0 52.3-42.6 94.9-94.9 94.9-37.4 0-71.4-22.1-86.7-56.3-4.6-10.3-16.7-15.1-27.2-10.4-10.4 4.6-15 16.8-10.4 27.2 21.9 48.9 70.6 80.6 124.2 80.6 75 0 136-61 136-136s-60.9-135.9-135.9-135.9zM842.6 196c-78 0-145.6 52.8-164.4 128.3-2.7 11 4 22.2 15 24.9 11 2.6 22.2-4 24.9-15 14.2-57.2 65.4-97.1 124.5-97.1 70.7 0 128.3 57.5 128.3 128.3s-57.5 128.3-128.3 128.3H32.5c-11.4 0-20.5 9.2-20.5 20.5 0 11.4 9.2 20.5 20.5 20.5h810.1c93.4 0 169.4-76 169.4-169.4S936 196 842.6 196zM32.5 396.9l324.8.1 1.3-.1c75 0 136-61 136-136s-61-136-136-136c-53.6 0-102.4 31.6-124.2 80.6-4.6 10.4 0 22.5 10.4 27.2 10.4 4.7 22.5 0 27.2-10.4 15.3-34.2 49.3-56.3 86.7-56.3 52.3 0 94.9 42.6 94.9 94.9 0 52.3-42.6 94.9-94.9 94.9-.9 0-1.9 0-2.8.1-.9 0-1.8-.1-2.8-.1H32.5c-11.4 0-20.5 9.2-20.5 20.5 0 11.4 9.2 20.6 20.5 20.6z"/>
    </symbol>
    <symbol id="icon_authorizedUser" viewBox="0 0 1024 1024">
      <title>icon_authorizedUser icon</title>
      <path d="M888.1 818c-16.7 4.5-26.6 21.8-22 38.5 9.1 33.3 13.7 68 13.7 102.8 0 17.3 14 31.3 31.3 31.3s31.3-14 31.3-31.3c0-40.5-5.4-80.6-16-119.4-4.4-16.7-21.5-26.5-38.3-21.9zM619.9 592.4c16.4 5.8 34.2-2.8 40-19.2 5.8-16.4-2.8-34.2-19.2-40-2.1-.7-4.3-1.4-6.5-2.1 81.6-48.8 136.4-138 136.4-239.8C770.4 137.2 645.1 12 491.1 12S211.8 137.2 211.8 291.3c0 101.8 54.9 191.1 136.5 239.9C169.1 591.1 39.6 760.3 39.6 959.4c0 17.3 14 31.3 31.3 31.3s31.3-14 31.3-31.3c0-214.4 174.4-388.7 388.7-388.7 44.3-.1 87.7 7.3 129 21.7zM274.5 291.3c0-119.4 97.2-216.6 216.6-216.6s216.6 97.2 216.6 216.6-97.2 216.6-216.6 216.6-216.6-97.2-216.6-216.6zM966.5 596.5l-64.2-77.9c-27.5-33.3-77.1-38.1-110.3-10.6l-78 64.2c-16.1 13.3-26.1 32.1-28.1 53s4.2 41.3 17.5 57.4l.3.3L527 828.8l-83.1 68.6c-5.2 4.2-8.4 10.3-9 17-.6 6.7 1.4 13.2 5.7 18.4l57.9 70.1c4.9 6.1 12.1 9.1 19.4 9.1 5.7 0 11.3-1.9 16-5.8 10.7-8.8 12.2-24.6 3.4-35.4L495.2 920l44.4-36.7 25.6 30.9c5 6 12.1 9.1 19.4 9.1 5.7 0 11.3-1.9 16-5.8 10.7-8.8 12.2-24.6 3.3-35.4l-25.6-30.9 157.5-129.9 32.1 38.9c13.3 16.1 32.1 26.1 53 28.1 2.5.2 5.2.4 7.7.4 18.2 0 35.6-6.2 49.7-17.9l77.9-64.2c33-27.2 37.8-76.7 10.3-110.1zM924 668.2l-77.9 64.2c-5.8 4.7-13.1 7-20.6 6.3-7.6-.7-14.3-4.3-19.1-10.1l-48-58.2-16.3-19.7c-4.7-5.8-7-13.1-6.3-20.6.7-7.6 4.3-14.3 10.1-19.1l77.9-64.2c5.3-4.3 11.6-6.5 18-6.5 8.2 0 16.3 3.5 21.8 10.2l64.2 77.9c9.9 12 8.2 29.9-3.8 39.8z"/>
    </symbol>
    <symbol id="icon_auto" viewBox="0 0 1024 1024">
      <title>icon_auto icon</title>
      <path d="M972.7 317.4c-25.1-59.5-61.3-113-107.2-158.9s-99.3-82-158.9-107.2C644.9 25.2 579.5 12 512 12S379.1 25.2 317.4 51.3c-59.5 25.1-113 61.3-158.9 107.2s-82 99.3-107.2 158.9C25.2 379.1 12 444.5 12 512s13.2 132.9 39.3 194.6c25.1 59.5 61.3 113 107.2 158.9s99.3 81.9 158.9 107.2c61.7 26.1 127.1 39.3 194.6 39.3s132.9-13.2 194.6-39.3c59.5-25.1 113-61.3 158.9-107.2s81.9-99.3 107.2-158.9c26.1-61.7 39.3-127.1 39.3-194.6s-13.2-132.9-39.3-194.6zM512 966.2C261.6 966.2 57.8 762.4 57.8 512S261.6 57.8 512 57.8 966.2 261.6 966.2 512 762.4 966.2 512 966.2zM508.5 138.9h-.1c-8.7 0-16.6 5-20.5 12.7L187.6 757c-5.6 11.3-1 25 10.4 30.7 3.3 1.6 6.7 2.3 10.2 2.3 8.4 0 16.5-4.7 20.6-12.7L324.7 584h372.7l98.2 193.5c5.7 11.3 19.5 15.8 30.7 10.1 11.3-5.7 15.8-19.5 10.1-30.7L528.9 151.6c-3.9-7.8-11.8-12.7-20.4-12.7zM347.3 538.3L508.7 213 674 538.3H347.3z"/>
    </symbol>
    <symbol id="icon_back" viewBox="0 0 1024 1024">
      <title>icon_back icon</title>
      <path d="M862.7 227.7H122.8c.6-.7 1.4-1.6 2.1-2.2L298.1 52.2c9.2-9.2 9.2-24 0-33.3-9.2-9.2-24-9.2-33.3 0L91.5 192.2c-15.7 15.7-24.4 36.7-24.4 59.2 0 22.3 8.6 43.3 24.4 59.1l173.3 173.3c4.6 4.6 10.6 6.9 16.6 6.9 6.1 0 12-2.3 16.6-6.9 9.2-9.2 9.2-24 0-33.3L124.8 277.1c-.7-.7-1.4-1.5-2-2.2h740c26 0 47 20.9 47 46.4v597.3c0 25.6-21.1 46.4-47 46.4H95c-13 0-23.5 10.5-23.5 23.5S82 1012 95 1012h767.7c51.9 0 94.2-41.9 94.2-93.5V321.3c0-51.5-42.3-93.6-94.2-93.6z"/>
    </symbol>
    <symbol id="icon_changePwd" viewBox="0 0 1024 1024">
      <title>icon_changePwd icon</title>
      <path d="M967.6 151c-.2-6.3-2.8-12.1-7.4-16.5L836.6 18.4c-9.5-8.9-24.4-8.5-33.3 1-8.9 9.5-8.5 24.4 1 33.3l106.5 100-105.6 112.4-71.4-67.1c-9.5-8.9-24.4-8.5-33.3 1-8.9 9.5-8.5 24.4 1 33.3l71.4 67.1-292.6 311.7-89.3-83.8c-22.8-21.5-53-32.9-84.3-31.8-31.5 1-60.7 14.1-82.2 37L88.3 677.3c-44.4 47.4-42.1 122.1 5.3 166.6l144.9 136.2c22.7 21.3 51.7 31.9 80.6 31.9 31.4 0 62.7-12.4 86-37.1L541.2 830c21.5-22.8 32.7-52.8 31.8-84.3-1-31.5-14.1-60.7-37-82.2l-21.4-20.1L961.1 168c4.4-4.7 6.7-10.7 6.5-17zM506.8 797.6l-136.1 145c-26.7 28.4-71.5 29.8-100 3.1L125.8 809.6c-28.4-26.7-29.8-71.5-3.1-99.9l136.2-144.9c12.8-13.6 30.4-21.5 49.3-22.1h2.3c18.1 0 35.2 6.7 48.3 19.1L503.7 698c13.7 12.8 21.6 30.4 22.1 49.3.6 18.6-6.1 36.6-19 50.3z"/>
    </symbol>
    <symbol id="icon_clear" viewBox="0 0 1024 1024">
      <title>icon_clear icon</title>
      <style type="text/css">.st0{fill:#272636;}</style><path class="st0" d="M938.4 576.7c11-18.7 8.6-44.9-6.5-71.9l-88-157.5c-13.7-24.5-41.6-42.2-66.3-42.2H630.9V78.3c0-36.5-29.7-66.3-66.3-66.3h-99.4C428.7 12 399 41.7 399 78.3v226.9H252.3c-24.7 0-52.6 17.8-66.3 42.2L98 504.9c-15.1 27-17.4 53.2-6.4 71.9 8 13.7 22.3 21.6 39.2 21.6h71.5l-47.3 174c-7.5 29.6-21.7 44.6-36.8 60.4-20.4 21.4-43.5 45.7-38.7 96.9 5.2 54.7 45.2 82.4 119 82.4 6.9 0 14.1-.2 21.6-.7h651.5c19.3 0 37.4-8.2 49.6-22.4 12.7-14.8 18.1-34.8 14.9-56l-63.5-334.5h26.7c16.7-.2 31-8.1 39.1-21.8zm-54.6 365.1c.8 5-.2 9.5-2.9 12.6-2.2 2.6-5.4 3.9-9.4 3.9H735.2L783.7 786c4-14.1-4.2-28.7-18.3-32.7-14.1-4-28.7 4.2-32.7 18.3l-52.5 186.7h-90.3L638.3 786c4-14.1-4.2-28.7-18.3-32.7-14.1-4-28.7 4.2-32.7 18.3l-52.5 186.7h-90.3L492.9 786c4-14.1-4.2-28.7-18.3-32.7-14.1-4-28.7 4.2-32.7 18.3l-52.5 186.7H299L347.5 786c4-14.1-4.2-28.7-18.3-32.7-14.1-4-28.7 4.2-32.7 18.3L244 958.3h-24.8l-1.8.1c-71.5 4.7-83.2-13.4-85.1-33.8-2.6-27.1 6.4-36.5 24.3-55.3 17.4-18.2 39-40.9 49.7-83.6l50.9-187.4h561.4l65.2 343.5zm-21.4-396.5H138.3c.8-3.5 2.5-8.5 5.9-14.6l88-157.5c5-8.9 16-15.1 20.1-15.1H452V78.3c0-7.2 6.1-13.3 13.3-13.3h99.4c7.2 0 13.3 6.1 13.3 13.3v279.9h199.7c4.1 0 15.1 6.2 20.1 15.1l88 157.5c3.4 6.1 5.1 11.1 5.9 14.6h-29.3z"/>
    </symbol>
    <symbol id="icon_close" viewBox="0 0 1024 1024">
      <title>icon_close icon</title>
      <path d="M919.1 310.1c-39.2-68.4-95.4-126.3-162.8-167.4-10.5-6.4-24.2-3.1-30.6 7.4-6.4 10.5-3.1 24.2 7.4 30.6 127.3 77.9 203.3 213.2 203.3 362.2 0 234-190.4 424.4-424.4 424.4S87.6 777 87.6 543c0-141.2 69.9-272.8 187.1-351.8 10.2-6.9 12.9-20.7 6-30.9s-20.7-12.9-30.9-6C120.4 241.6 43.1 386.9 43.1 543c0 63.3 12.4 124.7 36.9 182.5 23.6 55.8 57.4 106 100.5 149.1s93.2 76.9 149 100.5c57.8 24.4 119.3 36.9 182.5 36.9 63.3 0 124.7-12.4 182.5-36.9 55.8-23.6 106-57.4 149-100.5 43.1-43.1 76.9-93.2 100.5-149.1 24.4-57.8 36.9-119.3 36.9-182.5 0-81.8-21.3-162.3-61.8-232.9zM512 601.8c12.3 0 22.3-10 22.3-22.3v-545c0-12.3-10-22.3-22.3-22.3s-22.3 10-22.3 22.3v545.1c0 12.2 10 22.2 22.3 22.2z"/>
    </symbol>
    <symbol id="icon_correct" viewBox="0 0 1024 1024">
      <title>icon_correct icon</title>
      <path d="M512 12C235.8 12 12 235.8 12 512s223.8 500 500 500 500-223.8 500-500S788.2 12 512 12zm325.9 336.5L500 813.7c-12.6 17.4-32.1 28.5-53.5 30.6-2.4.2-4.7.3-7.2.3-18.9 0-37.3-7.2-51.2-20.2l-192.4-180c-30.2-28.3-31.8-75.8-3.5-106s75.8-31.8 106.1-3.5l130.4 121.9 288-396.6c24.3-33.5 71.2-41 104.7-16.6 33.3 24.5 40.8 71.3 16.5 104.9z"/>
    </symbol>
    <symbol id="icon_curtain" viewBox="0 0 1024 1024">
      <title>icon_curtain icon</title>
      <path d="M989.4 125.2H34.6c-12.5 0-22.6 10.1-22.6 22.6v801.7c0 12.5 10.1 22.6 22.6 22.6h252c9.5 0 18.1-6 21.2-14.9 17.6-48.8-17.2-125.6-57.4-214.5-27.6-61.1-56.1-124-61.1-168.1 193-105.8 281.9-248.7 322.7-353.3 40.8 104.6 129.7 247.5 322.6 353.3-5.1 44-33.5 107-61.1 168.1-40.2 89-74.8 165.9-57.4 214.6 3.2 9 11.7 14.9 21.2 14.9h252c12.5 0 22.6-10.1 22.6-22.6V147.9c.1-12.6-10-22.7-22.5-22.7zM57.2 170.4h200.6C212 246.8 106 430 84 525.9 58.9 635.3 103.3 833.7 137.5 927H57.2V170.4zm98.2 371.1c-7.4 3.9-12 11.6-12 20 0 53.7 33.5 128 66 199.7 27.4 60.6 57.9 128.3 58.2 165.8H186c-32.3-77.6-81.3-288.4-57.8-391 23-100.2 151.9-315.3 182.6-365.6h171.4c-31.8 100.2-114 258.9-326.8 371.1zm659.2 219.7c32.4-71.7 66-146 66-199.7 0-8.4-4.6-16.1-12-20-212.7-112.2-295-270.9-326.6-371.1h171.4C744.1 220.7 873 435.7 896 535.9c23.5 102.6-25.5 313.4-57.8 391h-81.6c.1-37.4 30.7-105 58-165.7zm152.2 165.7h-80.4C920 834 964.6 633.2 940 525.8c-22-96-128-279-173.8-355.5h200.6v756.6zM36.7 97.1h952.6c12.5 0 22.6-10.1 22.6-22.6 0-12.4-10.1-22.6-22.6-22.6H36.7c-12.5 0-22.6 10.1-22.6 22.6s10.1 22.6 22.6 22.6z"/>
    </symbol>
    <symbol id="icon_del" viewBox="0 0 1024 1024">
      <title>icon_del icon</title>
      <path d="M905.1 267.8c-12.7 0-23.1 10.4-23.1 23.2v628c0 25.7-20.7 46.5-46.2 46.5H188.1c-25.6 0-46.2-20.9-46.2-46.5V291.1c0-12.8-10.4-23.2-23.1-23.2-10.8 0-19.8 7.4-22.4 17.4-.2-.1-.5-.3-.7-.4v634.2c0 51.3 41.3 93 92.5 93h647.5c51.1 0 92.5-41.7 92.5-93v-628c0-12.9-10.4-23.3-23.1-23.3zM350.1 826V314.3c0-12.8-10.4-23.2-23.1-23.2s-23.1 10.4-23.1 23.2V826c0 12.8 10.4 23.2 23.1 23.2s23.1-10.4 23.1-23.2zm370 0V314.3c0-12.8-10.4-23.2-23.1-23.2-12.7 0-23.1 10.4-23.1 23.2V826c0 12.8 10.4 23.2 23.1 23.2 12.7 0 23.1-10.4 23.1-23.2zm254.5-721H708.3L623 19.2c-4.9-4.9-11.3-7.3-17.7-7.2H418.7c-6.4-.1-12.8 2.3-17.7 7.2L315.6 105H49.4c-12.7 0-23.1 10.4-23.1 23.2s10.4 23.2 23.1 23.2H328.1c6.5.2 13-2.2 17.9-7.2l85.3-85.9h161.2l85.3 85.9c5 5 11.5 7.3 17.9 7.2h278.6c12.7 0 23.1-10.4 23.1-23.2.4-12.8-10-23.2-22.8-23.2zM535 826V314.3c0-12.8-10.4-23.2-23.1-23.2s-23.1 10.4-23.1 23.2V826c0 12.8 10.4 23.2 23.1 23.2 12.8 0 23.1-10.4 23.1-23.2z"/>
    </symbol>
    <symbol id="icon_delete" viewBox="0 0 1024 1024">
      <title>icon_delete icon</title>
      <path d="M989.6 489.5H61.9c2.5-5.1 5.8-10 10.1-14.2l214.4-214.4c8.8-8.8 8.8-22.9 0-31.7s-22.9-8.8-31.7 0L40.3 443.6c-37.7 37.7-37.7 99 0 136.7l214.4 214.4c4.4 4.4 10.2 6.6 15.9 6.6s11.5-2.2 15.9-6.6c8.8-8.8 8.8-22.9 0-31.7L72 548.7c-4.3-4.3-7.6-9.1-10.1-14.2h927.6c12.4 0 22.4-10.1 22.4-22.4.1-12.5-10-22.6-22.3-22.6z"/>
    </symbol>
    <symbol id="icon_door" viewBox="0 0 1024 1024">
      <title>icon_door icon</title>
      <path d="M841.7 298.9H726.1V101.2c0-49.2-40-89.2-89.2-89.2H189.7c-49.2 0-89.2 40-89.2 89.2v821.6c0 49.2 40 89.2 89.2 89.2h447.1c49.2 0 89.2-40 89.2-89.2V462.4h115.7c45.1 0 81.8-36.7 81.8-81.8s-36.7-81.7-81.8-81.7zM679.8 922.8c0 23.7-19.3 43-43 43H189.7c-23.7 0-43-19.3-43-43V101.2c0-23.7 19.3-43 43-43h447.1c23.7 0 43 19.3 43 43v197.7h-81.4c-32-73.1-104.4-121.1-185.1-121.1C301.7 177.8 211 268.5 211 380s90.7 202.3 202.3 202.3c80.1 0 152.2-47.5 184.5-119.8h82v460.3zM413.4 462.4h132.2c-28.1 45-77.8 73.6-132.3 73.6-86 0-156-70-156-156s70-156 156-156c55.1 0 105.2 29.1 133.1 74.9h-133c-45.1 0-81.8 36.7-81.8 81.8s36.7 81.7 81.8 81.7zm428.3-46.2H413.4c-19.6 0-35.5-15.9-35.5-35.5s15.9-35.5 35.5-35.5H841.7c19.6 0 35.5 15.9 35.5 35.5s-15.9 35.5-35.5 35.5zM413.3 629.8c-56.9 0-103.3 46.3-103.3 103.3 0 56.9 46.3 103.3 103.3 103.3 56.9 0 103.3-46.3 103.3-103.3-.1-57-46.4-103.3-103.3-103.3zm0 160.3c-31.4 0-57-25.6-57-57s25.6-57 57-57 57 25.6 57 57-25.6 57-57 57z"/>
    </symbol>
    <symbol id="icon_down" viewBox="0 0 1024 1024">
      <title>icon_down icon</title>
      <style type="text/css">.st0{fill:#040000;}</style><path class="st0" d="M1005.2 278.7c-9-9-23.6-9-32.6 0L569.1 682.4c-31.5 31.5-82.7 31.5-114.2 0L51.4 278.7c-9-9-23.6-9-32.6 0s-9 23.6 0 32.6L422.3 715c24.7 24.7 57.2 37.1 89.7 37.1s65-12.4 89.7-37.1l403.5-403.5c9.1-9.1 9.1-23.8 0-32.8z"/>
    </symbol>
    <symbol id="icon_edit" viewBox="0 0 1024 1024">
      <title>icon_edit icon</title>
      <path d="M784.3 1012H175.9c-55.9 0-101.4-48-101.4-107.1V178.6c0-59.1 45.5-95.1 101.4-95.1h473.2c18.7 0 33.8 9.3 33.8 29s-15.1 27.7-33.8 27.7H174.6c-18.6 0-44.7 18.7-44.7 38.4v726.3c0 19.7 13.8 53.1 46 54.4h608.3c18.7 0 47-27.3 46-54.4V333.4c0-19.7 9.6-35.7 28.4-35.7 18.7 0 27 16 27 35.7v571.5c0 59.1-45.5 107.1-101.3 107.1zm-200-584.8c-8.6 0-18.7 1.8-25.3-5.2-13.2-14-10.6-28.5 2.7-42.5l336-354.8c13.2-14 30.6-18 43.8-4 13.2 14 9.1 27.2-4.1 41.2L601.5 418.1c-6.6 7-17.2 9.1-17.2 9.1zm-138 0H243.5c-18.7 0-33.8-9.3-33.8-29s15.1-29 33.8-29h202.7c18.7 0 33.8 9.3 33.8 29s-15.1 29-33.7 29zm202.8 227.6H243.5c-18.7 0-33.8-9.3-33.8-29 0-19.8 15.1-29 33.8-29h405.6c18.7 0 33.8 9.3 33.8 29 0 19.8-15.2 29-33.8 29z"/>
    </symbol>
    <symbol id="icon_electricHeat" viewBox="0 0 1024 1024">
      <title>icon_electricHeat icon</title>
      <style type="text/css">.st0{fill:#272636;}</style><path class="st0" d="M992.9 915.1H31.1c-10.4 0-19.1 8.6-19.1 19.2 0 10.7 8.5 19.2 19.1 19.2h961.8c10.4 0 19.1-8.6 19.1-19.2 0-10.7-8.5-19.2-19.1-19.2zM31.1 838.1h961.8c10.4 0 19.1-8.6 19.1-19.2 0-10.7-8.5-19.2-19.1-19.2H31.1c-10.4 0-19.1 8.6-19.1 19.2 0 10.7 8.5 19.2 19.1 19.2zM300.5 541c0 48.8-16.1 86.4-42.9 115.1-9.4 10-19.4 18.1-29.4 24.5-5.8 3.7-10.1 6-12.2 6.8-9.8 4.2-14.3 15.5-10.1 25.2 4.2 9.8 15.5 14.3 25.2 10.1 14.3-6.1 34.5-19 54.6-40.4C319 646.8 339 599.9 339 540.9c0-57.8-21.2-91.8-82.1-156.7-54.5-58.1-71.7-85.7-71.7-130.4 0-50.6 10-89.6 26.4-118.8 5.5-9.8 11.4-17.7 17.1-23.8 3.2-3.4 5.3-5.3 6.1-5.8 8.7-6.2 10.7-18.2 4.5-26.8-6.2-8.7-18.2-10.7-26.8-4.5-9.4 6.7-22.2 20.3-34.5 42.1-19.7 35-31.3 80.5-31.3 137.6 0 57.8 21.2 91.8 82.1 156.7 54.4 58.1 71.7 85.8 71.7 130.5zM569.7 541c0 48.8-16.1 86.4-42.9 115.1-9.4 10-19.4 18.1-29.4 24.5-5.8 3.7-10.1 6-12.2 6.8-9.8 4.2-14.3 15.5-10.1 25.2 4.2 9.8 15.5 14.3 25.2 10.1 14.3-6.1 34.5-19 54.6-40.4 33.3-35.5 53.3-82.4 53.3-141.4 0-57.8-21.2-91.8-82.1-156.7-54.5-58.1-71.7-85.7-71.7-130.4 0-50.6 10-89.6 26.4-118.8 5.5-9.8 11.4-17.7 17.1-23.8 3.2-3.4 5.3-5.3 6.1-5.8 8.7-6.2 10.7-18.2 4.5-26.8-6.1-8.7-18.2-10.7-26.8-4.5-9.4 6.7-22.2 20.3-34.5 42.1-19.7 35-31.3 80.5-31.3 137.6 0 57.8 21.2 91.8 82.1 156.7 54.4 58.1 71.7 85.8 71.7 130.5zM819.7 541c0 48.8-16.1 86.4-42.9 115.1-9.4 10-19.4 18.1-29.4 24.5-5.8 3.7-10.1 6-12.2 6.8-9.8 4.2-14.3 15.5-10.1 25.2 4.2 9.8 15.5 14.3 25.2 10.1 14.3-6.1 34.5-19 54.6-40.4 33.3-35.5 53.3-82.4 53.3-141.4 0-57.8-21.2-91.8-82.1-156.7-54.5-58.1-71.7-85.7-71.7-130.4 0-50.6 10-89.6 26.4-118.8 5.5-9.8 11.4-17.7 17.1-23.8 3.2-3.4 5.3-5.3 6.1-5.8 8.7-6.2 10.7-18.2 4.5-26.8-6.2-8.7-18.2-10.7-26.8-4.5-9.4 6.7-22.2 20.3-34.5 42.1-19.7 35-31.3 80.5-31.3 137.6 0 57.8 21.2 91.8 82.1 156.7 54.4 58.1 71.7 85.8 71.7 130.5z"/>
    </symbol>
    <symbol id="icon_email" viewBox="0 0 1024 1024">
      <title>icon_email icon</title>
      <style type="text/css">.st0{fill:#272636;}</style><path class="st0" d="M928.3 173H95.7C49.5 173 12 210.5 12 256.7v510.6c0 46.2 37.5 83.7 83.7 83.7h832.7c46.3 0 83.7-37.4 83.7-83.7V256.7c-.1-46.2-37.4-83.7-83.8-83.7zm-20 60l-332 294.4c-29 25.9-50.4 38.7-64.3 38.7-13.8 0-35.3-12.8-64.3-38.7L115.7 233h792.6zM74.2 748.7V287.4l259.3 227.5L74.2 748.7zm43.6 42.3l260.3-231.2 42.6 37.4c24.8 21.7 55.3 32.8 91.2 32.8 36.1 0 66.4-11.1 91.3-32.8l42.6-37.4L906.3 791H117.8zm832-42.3L690.5 514.8l259.3-227.5v461.4zm0 0"/>
    </symbol>
    <symbol id="icon_enter" viewBox="0 0 1024 1024">
      <title>icon_enter icon</title>
      <path d="M897.7 12H260.8c-12.3 0-22.3 10-22.3 22.3v118c0 12.3 10 22.3 22.3 22.3s22.3-10 22.3-22.3V56.6h592.4v910.8H283.1v-95.7c0-12.3-10-22.3-22.3-22.3s-22.3 10-22.3 22.3v118c0 12.3 10 22.3 22.3 22.3h636.9c12.3 0 22.3-10 22.3-22.3V34.3C920 22 910 12 897.7 12zM364.1 742.2c-8.7 8.7-8.8 22.8-.1 31.5 4.4 4.4 10.1 6.6 15.8 6.6 5.7 0 11.4-2.2 15.7-6.5l256-254.8c4.2-4.2 6.6-9.9 6.6-15.8s-2.4-11.6-6.6-15.8l-256-254.8c-8.7-8.7-22.9-8.7-31.5.1-8.7 8.7-8.7 22.8.1 31.5l217.8 216.7H126.3c-12.3 0-22.3 10-22.3 22.3s10 22.3 22.3 22.3h455.5L364.1 742.2z"/>
    </symbol>
    <symbol id="icon_error" viewBox="0 0 1024 1024">
      <title>icon_error icon</title>
      <path d="M512 12C235.8 12 12 235.8 12 512s223.8 500 500 500 500-223.8 500-500S788.2 12 512 12zm312.4 706.4c29.3 29.3 29.3 76.8 0 106.1-14.6 14.6-33.8 22-53 22-19.2 0-38.4-7.4-53-22L512 618.1 305.6 824.4c-14.6 14.6-33.8 22-53 22s-38.4-7.4-53-22c-29.3-29.3-29.3-76.8 0-106.1L405.9 512 199.6 305.6c-29.3-29.3-29.3-76.8 0-106.1s76.8-29.3 106.1 0L512 405.9l206.4-206.4c29.3-29.3 76.8-29.3 106.1 0 29.3 29.3 29.3 76.8 0 106.1L618.1 512l206.3 206.4z"/>
    </symbol>
    <symbol id="icon_etc" viewBox="0 0 1024 1024">
      <title>icon_etc icon</title>
      <circle cx="95.7" cy="512" r="83.7"/><circle cx="512" cy="512" r="83.7"/><circle cx="928.3" cy="512" r="83.7"/>
    </symbol>
    <symbol id="icon_fill" viewBox="0 0 1024 1024">
      <title>icon_fill icon</title>
      <style type="text/css">.st0{fill:#272636;}</style><path class="st0" d="M985 363.2c-14.9 0-27 12.1-27 27v513.7c0 29.8-24.2 54-54 54H120.1c-29.8 0-54-24.2-54-54V120.1c0-29.8 24.2-54 54-54h513.7c14.9 0 27-12.1 27-27s-12.1-27-27-27H120.1C60.5 12 12 60.5 12 120.1V904c0 59.6 48.5 108.1 108.1 108.1H904c59.6 0 108.1-48.5 108.1-108.1V390.2c-.1-14.9-12.2-27-27.1-27zM305.4 545.8c-4.1 2.6-7.5 6.2-9.7 10.6L158.8 833.1c-5.1 10.4-3.1 22.9 5.1 31.1 5.2 5.2 12.1 7.9 19.1 7.9 4.1 0 8.2-.9 12-2.8l276.6-136.9c4.5-2.2 8-5.6 10.6-9.7 6.7-2.7 12.9-6.7 18.2-11.9l491.9-491.9c12.7-12.7 19.7-29.7 19.7-47.8 0-18.1-7-35-19.7-47.8l-87.5-87.5C892 23 875 16 857 16s-35 7-47.8 19.7L317.3 527.6c-5.3 5.3-9.2 11.5-11.9 18.2zm-62.7 239.6l84.7-171.2 86.5 86.4-171.2 84.8zm219.5-112.9L355.5 565.9l364.3-364.3 106.7 106.7-364.3 364.2zM847.4 74c3.4-3.4 7.4-3.9 9.5-3.9 2.1 0 6.2.5 9.6 3.9l87.5 87.5c3.4 3.4 3.9 7.5 3.9 9.6 0 2.1-.5 6.1-3.9 9.6L864.6 270 758 163.4 847.4 74z"/>
    </symbol>
    <symbol id="icon_gas" viewBox="0 0 1024 1024">
      <title>icon_gas icon</title>
      <path d="M496.5 1012c-188.3 0-310.9-136-360-256.7-56-137.4-35.1-275.3 53.3-351.3 6-5.1 14.1-6.8 21.6-4.4 7.5 2.4 13.2 8.5 15.1 16.1 30.9 123.8 80 161 108.5 172.2C299 49 532.9 13.4 543 12.2c7.1-.9 14.2 1.6 19.2 6.8 4.9 5.2 7.2 12.4 5.9 19.4C551.4 136 583 379.3 672.5 443.7c3.4-66.6 29.9-171.8 116.5-195.3 6.6-1.8 13.6-.5 19.1 3.4 5.5 3.9 9 10.2 9.4 16.9 3 45.5 18.7 80.3 38.5 124.3 20.4 45.3 43.6 96.7 58.1 172.5 15.9 83.4-12.1 186.6-73.2 269.3-73.2 99.1-186.6 161.7-319.3 176.3-8.5.6-16.9.9-25.1.9zM193.7 465.5c-50.8 66.5-57.5 169.1-15.3 272.7 45.6 112.1 161.9 239 339.4 227.9 152.8-16.8 240.4-95.3 286.8-158.1 53.8-72.9 78.8-162.5 65.2-233.9-13.5-70.6-35.5-119.3-54.9-162.4-15.8-35.1-31-68.7-38.4-107.8-50.9 36.7-62.9 133.6-58.1 172.7.9 7.4-1.9 14.7-7.5 19.7-5.6 4.9-13.2 6.8-20.4 5C553 467.2 513.7 197.8 519.8 68.9c-56 31.9-170.1 146.5-137.5 544.3 1 12.1-7.7 22.8-19.7 24.3-4.8.6-109.8 11.4-168.9-172z"/>
    </symbol>
    <symbol id="icon_home" viewBox="0 0 1024 1024">
      <title>icon_home icon</title>
      <path d="M511.4 34.5L12 545.6l181.6-.2-.3 443.4h250.5V713.1h139.7l-.5 275.8 248.7.6V546.3H1012L511.4 34.5zm292 482.9c-7.5 7.7-11.7 18.1-11.7 28.9v402.2l-168.6-.4.4-235c0-10.9-4.2-21.3-11.7-29-7.5-7.7-17.7-12-28.3-12H443.8c-22.1 0-40 18.3-40 40.9v234.8H233.4l.3-402.5c0-10.9-4.2-21.3-11.7-29-7.5-7.7-17.7-12-28.3-12h-.1l-85 .1 402.8-412 404 413h-83.7c-10.6 0-20.8 4.3-28.3 12z"/>
    </symbol>
    <symbol id="icon_humidity" viewBox="0 0 1024 1024">
      <title>icon_humidity icon</title>
      <path d="M789.6 507.1c-.7-2.8-1.9-5.3-3.7-7.4l-234.8-418h.1L512 12l-39.1 69.6-236.3 420.8c-.6 1.1-1 2.1-1.4 3.2-27 50.9-41.3 108.6-41.3 166.8 0 187.3 142.7 339.7 318.1 339.7s318-152.4 318-339.7c.1-57.6-14-114.7-40.4-165.3zM512 966.8c-150.4 0-272.9-132.1-272.9-294.5 0-50.8 12.5-101.2 36-145.7l1.8-3.4.4-1.2L512 104.3l234.4 417.4.3.5.2.8 2.6 4.9c23.1 44.2 35.4 94 35.4 144.4 0 162.5-122.5 294.5-272.9 294.5zM539.3 824.5c-40.3 6.5-74.4-.4-101.4-20.8-55.9-42.3-66.2-128.9-66.3-129.8-1.4-12.4-12.6-21.3-24.9-20-12.5 1.4-21.4 12.6-20 24.9.5 4.3 12.4 106.4 83.8 160.6 28.5 21.7 62.1 32.7 100.3 32.7 11.6 0 23.5-1 36-3 12.4-2 20.7-13.7 18.7-25.9-2.3-12.2-13.8-20.7-26.2-18.7z"/>
    </symbol>
    <symbol id="icon_ice" viewBox="0 0 1024 1024">
      <title>icon_ice icon</title>
      <style type="text/css">.st0{fill:#272636;}</style><path class="st0" d="M994.2 494.1H805.1l108.4-108.4c6.9-6.9 7-18.3 0-25.2s-18.3-7-25.2 0L762 486.8c-2.1 2.1-3.6 4.7-4.5 7.4H542.9l107.3-185.8c2.8.6 5.7.6 8.7-.2L831.4 262c9.5-2.5 15.3-12.4 12.7-21.9-2.6-9.6-12.4-15.2-22-12.6l-148 39.7 94.5-163.8c4.9-8.4 2-19.4-6.6-24.4s-19.5-2-24.4 6.5l-94.5 163.8-39.6-148c-2.5-9.4-12.4-15.3-21.9-12.7-9.6 2.6-15.2 12.4-12.6 22L615.3 283c.8 2.9 2.3 5.5 4.2 7.6L512 476.3 404.7 290.4c1.9-2.1 3.4-4.7 4.2-7.6l46.2-172.5c2.5-9.5-3.1-19.4-12.6-22-9.6-2.6-19.4 3.1-21.9 12.7L381 249 286.4 85.5c-4.9-8.4-15.8-11.4-24.4-6.5-8.6 5-11.5 15.9-6.6 24.4l94.5 163.8-148-39.6c-9.5-2.5-19.4 3.1-22 12.6-2.6 9.6 3.1 19.4 12.7 21.9l172.4 46c2.9.8 5.9.8 8.7.1l107.4 185.9H266.5c-.8-2.7-2.3-5.3-4.5-7.4L135.8 360.5c-6.9-6.9-18.4-7-25.2 0-7 7-7 18.3 0 25.2L219 494.1H29.8c-9.8 0-17.8 8-17.8 17.9 0 10 8 17.9 17.8 17.9h189.1L110.5 638.2c-6.9 6.9-7 18.3 0 25.2s18.3 7 25.2 0L262 537.2c2.1-2.1 3.6-4.7 4.5-7.4h214.6L373.8 715.7c-2.8-.6-5.7-.6-8.7.2l-172.5 46.2c-9.5 2.5-15.3 12.4-12.7 21.9 2.6 9.6 12.4 15.2 22 12.6l148-39.6-94.5 163.8c-4.9 8.4-2 19.4 6.6 24.4s19.5 2 24.4-6.5l94.5-163.8 39.7 148c2.5 9.5 12.4 15.3 21.9 12.7 9.6-2.6 15.2-12.4 12.6-22l-46.2-172.4c-.8-2.9-2.3-5.5-4.2-7.6L512 547.7l107.3 185.8c-1.9 2.1-3.4 4.7-4.2 7.6l-46.2 172.5c-2.5 9.5 3.1 19.4 12.6 22 9.6 2.6 19.4-3.1 21.9-12.7l39.6-148 94.5 163.8c4.9 8.4 15.8 11.4 24.4 6.5 8.6-5 11.5-15.9 6.6-24.4L673.9 757l148 39.6c9.5 2.5 19.4-3.1 22-12.6 2.6-9.6-3.1-19.4-12.7-21.9L658.8 716c-2.9-.8-5.9-.8-8.7-.1l-107.2-186h214.6c.8 2.7 2.3 5.3 4.5 7.4l126.2 126.2c6.9 6.9 18.4 7 25.2 0 7-7 7-18.3 0-25.2L805.1 529.9h189.1c9.8 0 17.8-8 17.8-17.9 0-10-8-17.9-17.8-17.9z"/>
    </symbol>
    <symbol id="icon_infoShow" viewBox="0 0 1024 1024">
      <title>icon_infoShow icon</title>
      <path d="M918.6 180.7H105.4c-51.5 0-93.4 41.9-93.4 93.4v475.7c0 51.5 41.9 93.4 93.4 93.4h813.1c51.5 0 93.4-41.9 93.4-93.4V274.2c.1-51.6-41.8-93.5-93.3-93.5zm56 569.1c0 30.9-25.2 56.1-56.1 56.1H105.4c-30.9.1-56.1-25.2-56.1-56V274.2c0-31 25.2-56.2 56.1-56.2h813.1c30.9 0 56.1 25.2 56.1 56.1v475.7zM886 562.7H785.7V462.4c0-10.3-8.4-18.7-18.7-18.7-10.3 0-18.7 8.4-18.7 18.7v100.3H648.1c-10.3 0-18.7 8.4-18.7 18.7s8.4 18.7 18.7 18.7h100.3v100.3c0 10.3 8.4 18.7 18.7 18.7 10.3 0 18.7-8.4 18.7-18.7V600.1H886c10.3 0 18.7-8.4 18.7-18.7s-8.4-18.7-18.7-18.7z"/>
    </symbol>
    <symbol id="icon_left" viewBox="0 0 1024 1024">
      <title>icon_left icon</title>
      <style type="text/css">.st0{fill:#040000;}</style><path class="st0" d="M745.3 1005.2c9-9 9-23.6 0-32.6L341.6 569.1c-31.5-31.5-31.5-82.7 0-114.2L745.3 51.4c9-9 9-23.6 0-32.6s-23.6-9-32.6 0L309 422.3c-24.7 24.7-37.1 57.2-37.1 89.7s12.4 65 37.1 89.7l403.5 403.5c9.1 9.1 23.8 9.1 32.8 0z"/>
    </symbol>
    <symbol id="icon_light" viewBox="0 0 1024 1024">
      <title>icon_light icon</title>
      <path d="M511.8 15.8c-207.5 0-376.3 156.4-376.3 348.6 0 107.2 52.7 206.5 144.8 273.5 1.7 2.2 3.8 4.1 6.2 5.7.6.3 49.3 30.8 49.3 89 0 1 .9 1.5 1 2.5.1.7-.7 1.4-.4 2.2l61.7 261.3c2.3 10 11.9 17.2 23.1 17.2h181.4c11 0 20.6-7.2 23-17.2l61.9-261.3c.2-.8-.7-1.6-.6-2.2.1-1 1.1-1.5 1.1-2.5 0-57.5 47.3-87.6 49.2-89 2.1-1.2 3.7-2.9 5.1-4.9 92.9-67 146.1-166.8 146.1-274.3 0-192.3-169-348.6-376.6-348.6M583.6 972H440.2l-5.2-21.6h153.5l-4.9 21.6zm15.3-65.2H424.8l-5.2-21.8h184.5l-5.2 21.8zm15.5-65.4H409.3l-20.5-87h246.4l-20.8 87zM709.1 607c-2 1.3-3.6 3-5 4.9-15.9 11.7-53.4 44.8-61.7 98.8H535.7v-305c-.1-11.4 4.8-22.5 13.5-30.7 8.9-8.3 20.6-12.9 33.3-12.9 12.9 0 23.6-9.8 23.6-21.9s-10.7-21.9-23.6-21.9c-25.3 0-48.9 9.1-66.7 25.7-1.6 1.5-2.2 3.6-3.8 5.4-1.6-1.8-2.3-3.9-4-5.7-17.8-16.4-41.4-25.4-66.2-25.4h-.3c-13 0-23.6 9.7-23.6 22 0 12 10.6 21.8 23.7 21.8h.2c12.3 0 24 4.6 33 12.8 8.9 8.2 13.9 19.2 13.9 30.9v304.8H381.2c-8.3-54.1-46.1-87.2-61.7-99-1.4-1.7-3-3.2-5-4.6-83.9-58.6-131.8-147.2-131.8-242.7 0-168.2 147.6-304.9 329-304.9C693.3 59.4 841 196.2 841 364.3c.2 95.6-48 184.1-131.9 242.7"/>
    </symbol>
    <symbol id="icon_manipulator" viewBox="0 0 1024 1024">
      <title>icon_manipulator icon</title>
      <path d="M867.5 871.7l-4.8-4.8 21.6-21.6c2.7-2.7 2.7-7.2 0-9.9L873 824c-2.7-2.7-7.2-2.7-9.9 0l-21.6 21.6-62.5-62.5c19.4-22.9 31.2-52.6 31.2-84.9V325.8c0-72.5-59-131.5-131.5-131.5h-36.8c-4.1-8.5-12.9-14.4-23-14.4h-14.3V76c0-8.3-5.5-15.5-13.4-17.8-2.2-.6-55.5-15.7-112.7-15.7-59 0-110.7 15.1-112.9 15.8-7.9 2.3-13.2 9.5-13.2 17.7v103.9H338c-10.1 0-18.8 5.9-23 14.4h-8.8c-72.5 0-131.5 59-131.5 131.5v372.4c0 72.5 59 131.5 131.5 131.5h8.4c3.9 8.5 12.4 14.4 22.3 14.4h15.3V948c0 8.3 5.5 15.5 13.4 17.8 2.2.6 55.5 15.7 112.7 15.7 59 0 110.7-15.1 112.9-15.8 7.9-2.3 13.2-9.5 13.2-17.7V844.1h15.3c8.4 0 15.9-4.3 20.3-10.8l107 106.8-23 23c-2.7 2.7-2.7 7.2 0 9.9l11.4 11.4c2.7 2.7 7.2 2.7 9.9 0l23-23 4.8 4.8c13 13 30.1 19.5 47.2 19.5s34.2-6.5 47.2-19.5c12.6-12.6 19.5-29.4 19.5-47.2 0-17.9-6.9-34.7-19.5-47.3zM389.3 90.4c18.1-4.2 52.4-10.9 89.1-10.9 35.8 0 70.7 6.7 89.1 10.9v89.5H389.3V90.4zM211.8 698.2V325.8c0-52.1 42.4-94.5 94.5-94.5H678.6c52.1 0 94.5 42.4 94.5 94.5v372.4c0 52.1-42.4 94.5-94.5 94.5H306.3c-52.1 0-94.5-42.4-94.5-94.5zm355.8 235.4c-18.1 4.2-52.4 10.9-89.1 10.9-35.8 0-70.7-6.7-89.1-10.9v-89.5h178.3v89.5zm116.9-104.1c25.7-1.1 49.5-9.7 69.3-23.5l63.6 63.6-5.6 5.6c-2.4-.6-4.9-1-7.5-1-16.5 0-29.8 13.4-29.8 29.8 0 2.6.3 5.1 1 7.5l-4.3 4.3-86.7-86.3zm159 112.6c-12.8 12.8-33.6 12.8-46.4 0l-4.8-4.8 4.3-4.3c2.4.6 4.9 1 7.5 1 16.5 0 29.8-13.4 29.8-29.8 0-2.6-.3-5.1-1-7.5l5.6-5.6 4.8 4.8c6.2 6.2 9.5 14.4 9.5 23.2.2 8.6-3.1 16.9-9.3 23zM674.2 693.7c48.5-48.5 75.3-113.1 75.3-181.7s-26.7-133.2-75.3-181.7C625.7 281.7 561.1 255 492.5 255s-133.2 26.7-181.7 75.3c-48.5 48.5-75.3 113.1-75.3 181.7s26.7 133.2 75.3 181.7c48.5 48.5 113.1 75.3 181.7 75.3s133.2-26.7 181.7-75.3zM269.5 512c0-123 100-223 223-223s223 100 223 223-100 223-223 223-223-100-223-223zM421 99c-5.5 0-10 4.5-10 10v54c0 5.5 4.5 10 10 10s10-4.5 10-10v-54c0-5.5-4.5-10-10-10zM421 931.3c5.5 0 10-4.5 10-10v-54c0-5.5-4.5-10-10-10s-10 4.5-10 10v54c0 5.5 4.5 10 10 10z"/>
    </symbol>
    <symbol id="icon_menu" viewBox="0 0 1024 1024">
      <title>icon_menu icon</title>
      <path d="M727.4 263.8H296.6c-12.7 0-23.1 10.4-23.1 23.1 0 12.7 10.3 23.1 23.1 23.1h430.8c12.7 0 23.1-10.4 23.1-23.1 0-12.7-10.3-23.1-23.1-23.1zM727.4 488.9H296.6c-12.7 0-23.1 10.4-23.1 23.1s10.4 23.1 23.1 23.1h430.8c12.7 0 23.1-10.4 23.1-23.1s-10.3-23.1-23.1-23.1zM727.4 714.1H296.6c-12.7 0-23.1 10.4-23.1 23.1 0 12.7 10.3 23.1 23.1 23.1h430.8c12.7 0 23.1-10.4 23.1-23.1 0-12.8-10.3-23.1-23.1-23.1zM847.4 12H627.3c-12.7 0-23.1 10.4-23.1 23.1s10.4 23.1 23.1 23.1h220.1c35 0 63.5 28.5 63.5 63.5v278.2c0 12.7 10.4 23.1 23.1 23.1 12.7 0 23.1-10.4 23.1-23.1V121.6C957 61.1 907.8 12 847.4 12zM90.1 422.9c12.7 0 23.1-10.4 23.1-23.1V121.6c0-35 28.5-63.5 63.5-63.5H403c12.7 0 23.1-10.4 23.1-23.1s-10.5-23-23.2-23H176.6C116.2 12 67 61.1 67 121.6v278.2c0 12.7 10.3 23.1 23.1 23.1zM933.9 601.1c-12.7 0-23.1 10.4-23.1 23.1v278.2c0 35-28.5 63.5-63.5 63.5h-220c-12.7 0-23.1 10.4-23.1 23.1s10.4 23.1 23.1 23.1h220.1c60.4 0 109.6-49.1 109.6-109.6V624.2c0-12.7-10.3-23.1-23.1-23.1zM402.9 965.8H176.6c-35 0-63.5-28.5-63.5-63.5V624.2c0-12.7-10.4-23.1-23.1-23.1s-23 10.4-23 23.1v278.2c0 60.4 49.1 109.6 109.6 109.6h226.3c12.7 0 23.1-10.4 23.1-23.1s-10.4-23.1-23.1-23.1z"/>
    </symbol>
    <symbol id="icon_minus" viewBox="0 0 1024 1024">
      <title>icon_minus icon</title>
      <path d="M989.3 534.7H34.7C22.2 534.7 12 524.5 12 512s10.2-22.7 22.7-22.7h954.6c12.5 0 22.7 10.2 22.7 22.7s-10.2 22.7-22.7 22.7z"/>
    </symbol>
    <symbol id="icon_mode" viewBox="0 0 1024 1024">
      <title>icon_mode icon</title>
      <path d="M993.5 12.6c-10.8-2.6-22.1 2.7-27.1 12.6L508.7 934 57.8 25.4c-5-10-16.2-15.3-27.1-12.8S12 25 12 36.1v951.7c0 13.3 10.8 24.1 24.1 24.1s24.1-10.8 24.1-24.1V139l426.6 859.6c4.1 8.1 12.4 13.4 21.5 13.4h.1c9.1 0 17.5-5.1 21.5-13.3l433.8-861.1v850.3c0 13.3 10.8 24.1 24.1 24.1s24.1-10.8 24.1-24.1V36.1c.1-11.1-7.6-20.8-18.4-23.5z"/>
    </symbol>
    <symbol id="icon_mute" viewBox="0 0 1024 1024">
      <title>icon_mute icon</title>
      <path d="M562.5 13.9c-8.3-3.6-17.8-1.9-24.4 4.3L261.3 279.8H66.4c-22.4 0-40.6 20.8-40.6 46.3v372c0 25.5 18.2 46.3 40.6 46.3h194.9L538.1 1006c4.3 4 9.8 6.1 15.5 6.1 3 0 6-.6 8.9-1.8 8.3-3.6 13.6-11.7 13.6-20.7v-955c0-9-5.3-17.1-13.6-20.7zm-31.4 923.4L285.8 705.5c-4.2-3.9-9.7-6.1-15.5-6.1H71c-.1-.4-.1-.8-.1-1.3V326c0-.5 0-.9.1-1.3h199.3c5.7 0 11.3-2.2 15.5-6.1L531.2 86.8l-.1 850.5zM852.7 518.5l138.7-138.7c8.8-8.8 8.8-23 0-31.8s-23-8.8-31.8 0L821 486.6 682.2 347.9c-8.8-8.8-23-8.8-31.8 0s-8.8 23 0 31.8l138.7 138.7-138.7 138.8c-8.8 8.8-8.8 23 0 31.8 4.4 4.4 10.2 6.6 15.9 6.6 5.8 0 11.5-2.2 15.9-6.6l138.7-138.7L959.7 689c4.4 4.4 10.2 6.6 15.9 6.6 5.8 0 11.5-2.2 15.9-6.6 8.8-8.8 8.8-23 0-31.8L852.7 518.5z"/>
    </symbol>
    <symbol id="icon_number0" viewBox="0 0 1024 1024">
      <title>icon_number0 icon</title>
      <path d="M519.4 1012c-215.7-3.3-323.3-167.4-323.3-492.6C199.3 191.1 305.6 22 514.4 12c205.7 6.7 310.1 175.9 313.4 507.4-3.2 325.2-106 489.3-308.4 492.6zM504.6 76.7C361.9 90 288.9 237.6 285.7 519.4c0 291.9 76.2 436.2 228.9 432.8 149.2 3.3 223.9-140.9 223.9-432.8-.2-298.4-78.1-446-233.9-442.7z"/>
    </symbol>
    <symbol id="icon_number1" viewBox="0 0 1024 1024">
      <title>icon_number1 icon</title>
      <path d="M545.4 193.8c-87.6 80.9-176.8 138.1-267.7 171.8v-85.9C432.6 209 530.3 119.8 570.7 12h55.6v1000h-80.8V193.8z"/>
    </symbol>
    <symbol id="icon_number2" viewBox="0 0 1024 1024">
      <title>icon_number2 icon</title>
      <path d="M190.6 1012v-61.2c64.6-122.4 170-238 316.3-346.9 156.4-115.6 232.9-221.1 229.6-316.3C733 154.9 659.9 86.9 517.1 83.4 404.9 93.7 330 158.3 292.7 277.3l-76.6-35.7C267.1 85.3 372.6 8.8 532.4 12.1c183.7 6.9 282.2 93.6 295.9 260.2 10.2 129.3-73.1 253.4-250 372.4-139.4 102-234.7 199-285.7 290.8h540.8v76.4H190.6z"/>
    </symbol>
    <symbol id="icon_number3" viewBox="0 0 1024 1024">
      <title>icon_number3 icon</title>
      <path d="M832.9 738.3c-10 175.9-116.1 267-318.4 273.7-179.1 0-286.9-79.6-323.3-238.8l89.6-24.9c19.9 132.7 94.6 199 223.9 199 159.2 0 238.8-72.9 238.8-218.9-13.3-126-94.6-194-243.8-204H425v-64.7h34.8c149.2-3.2 228.9-69.7 238.8-199-10-112.7-71.3-172.4-184.1-179.1C394.9 85 323.6 148 300.4 270.7L216 240.9C252.4 91.7 350.3 15.3 509.6 12c182.3 6.7 276.9 89.6 283.6 248.8-3.3 102.9-69.7 177.4-199 223.9 152.5 46.4 232 131 238.7 253.6z"/>
    </symbol>
    <symbol id="icon_number4" viewBox="0 0 1024 1024">
      <title>icon_number4 icon</title>
      <path d="M852.9 764.6H711.4V1012h-75.8V764.6H171.1v-40.4L650.9 12h60.6v686.9h141.4v65.7zM267 698.9h368.7V158.4L267 698.9z"/>
    </symbol>
    <symbol id="icon_number5" viewBox="0 0 1024 1024">
      <title>icon_number5 icon</title>
      <path d="M532.3 347c189.4 10.1 291 118.4 304.6 324.9-6.8 223.3-113.4 336.7-319.8 340.1-186.1 0-296.1-82.9-330-248.8l86.3-25.3c20.3 138.8 98.1 209.9 233.4 213.2 155.7-6.8 236.9-96.4 243.7-269-6.8-162.4-86.3-248.8-238.6-258.9-94.8 3.4-170.9 40.6-228.4 111.7l-55.9-10.1 56-512.8h502.6v76.1H349.6L314 443.4c54.1-64.2 126.9-96.4 218.3-96.4z"/>
    </symbol>
    <symbol id="icon_number6" viewBox="0 0 1024 1024">
      <title>icon_number6 icon</title>
      <path d="M808 216l-74.7 29.9c-23.2-116.1-89.4-172.4-199-169.2C361.9 80 275.7 237.6 275.7 549.3 318.8 433.2 410 375.2 549.3 375.2c175.8 10 270.3 114.4 283.6 313.4C819.6 891 718.4 998.8 529.4 1012c-225.6 0-338.3-155.9-338.3-467.7C194.3 189.4 312.1 12 544.3 12 683.7 18.7 771.4 86.7 808 216zM280.7 633.9c3.2 209 87.9 316.8 253.8 323.3 132.7-6.7 202.3-92.8 209-258.7-3.3-169.1-73-255.3-209-258.7-132.8.1-217.4 64.8-253.8 194.1z"/>
    </symbol>
    <symbol id="icon_number7" viewBox="0 0 1024 1024">
      <title>icon_number7 icon</title>
      <path d="M451 1012h-92.8C406.3 713 536.9 405.6 750 89.3H208.9V12h644.3v56.7C629.8 378 495.8 692.4 451 1012z"/>
    </symbol>
    <symbol id="icon_number8" viewBox="0 0 1024 1024">
      <title>icon_number8 icon</title>
      <path d="M404.9 494.6c-112.8-53-172.4-127.7-179.1-223.9C239 108.2 335.2 22 514.3 12c169.2 13.3 262 99.6 278.7 258.7-6.7 99.6-63 174.1-169.1 223.9 136 53.1 207.2 142.7 213.9 268.7-10 162.6-117.8 245.4-323.3 248.8-212.3-3.3-321.8-89.6-328.3-258.7 9.8-122.7 82.7-209.1 218.7-258.8zm104.6 24.8c-142.7 10-220.6 87.9-233.8 233.8 13.2 126.1 92.8 194 238.8 204 142.6-10 220.6-74.7 233.8-194-10.1-152.5-89.6-233.8-238.8-243.8zm4.8-442.7c-119.4 10-184.1 71.3-194 184.1 3.2 129.3 68 197.3 194 204 116.1-3.2 177.4-67.9 184.1-194C688.6 154.7 627.1 90 514.3 76.7z"/>
    </symbol>
    <symbol id="icon_number9" viewBox="0 0 1024 1024">
      <title>icon_number9 icon</title>
      <style type="text/css">.st0{opacity:0.97;enable-background:new ;}</style><path class="st0" d="M220.9 823.1l79.6-29.9c23.2 116.1 87.9 170.9 194 164.2C657 950.7 740 791.6 743.3 479.8 696.8 596 610.6 657.3 484.6 664c-179.1-13.2-277-117.7-293.6-313.5C204.3 141.5 308.8 28.7 504.6 12 726.8 8.8 836.3 169.6 833 494.6c0 341.7-116.1 514-348.2 517.4-142.8-3.2-230.7-66.2-263.9-188.9zm522.4-417.9c0-218.9-84.6-326.7-253.7-323.4-132.7 13.3-204 99.5-213.9 258.7 6.7 159.2 77.9 243.8 213.9 253.8 129.3-10.1 213.9-73 253.7-189.1z"/>
    </symbol>
    <symbol id="icon_numberBtn" viewBox="0 0 1024 1024">
      <title>icon_numberBtn icon</title>
      <path d="M252 52v200H52V52h200m20-40H32c-11 0-20 9-20 20v240c0 11 9 20 20 20h240c11 0 20-9 20-20V32c0-11-9-20-20-20zM972 52v200H772V52h200m20-40H752c-11 0-20 9-20 20v240c0 11 9 20 20 20h240c11 0 20-9 20-20V32c0-11-9-20-20-20zM612 52v200H412V52h200m20-40H392c-11 0-20 9-20 20v240c0 11 9 20 20 20h240c11 0 20-9 20-20V32c0-11-9-20-20-20zM252 412v200H52V412h200m20-40H32c-11 0-20 9-20 20v240c0 11 9 20 20 20h240c11 0 20-9 20-20V392c0-11-9-20-20-20zM972 412v200H772V412h200m20-40H752c-11 0-20 9-20 20v240c0 11 9 20 20 20h240c11 0 20-9 20-20V392c0-11-9-20-20-20zM612 412v200H412V412h200m20-40H392c-11 0-20 9-20 20v240c0 11 9 20 20 20h240c11 0 20-9 20-20V392c0-11-9-20-20-20zM252 772v200H52V772h200m20-40H32c-11 0-20 9-20 20v240c0 11 9 20 20 20h240c11 0 20-9 20-20V752c0-11-9-20-20-20zM972 772v200H772V772h200m20-40H752c-11 0-20 9-20 20v240c0 11 9 20 20 20h240c11 0 20-9 20-20V752c0-11-9-20-20-20zM612 772v200H412V772h200m20-40H392c-11 0-20 9-20 20v240c0 11 9 20 20 20h240c11 0 20-9 20-20V752c0-11-9-20-20-20z"/>
    </symbol>
    <symbol id="icon_numberChange" viewBox="0 0 1024 1024">
      <title>icon_numberChange icon</title>
      <path d="M12 486h267.4v59.9H12zM284.6 913h44.7l178.8-802h-41.6zM515.2 486H729v59.9H515.2zM798.2 486H1012v59.9H798.2z"/>
    </symbol>
    <symbol id="icon_OK" viewBox="0 0 1024 1024">
      <title>icon_OK icon</title>
      <path d="M258 142.7C122.1 142.7 12 308 12 512s110.1 369.3 246 369.3S504 716 504 512 393.9 142.7 258 142.7zm182.7 238c11.7 41.5 17.7 85.6 17.7 131.3s-5.9 89.8-17.7 131.3c-11.1 39.4-26.8 74.5-46.8 104.4-19.1 28.6-40.8 50.7-64.6 65.9-22.9 14.5-46.9 21.9-71.2 21.9s-48.4-7.4-71.2-21.9c-23.8-15.1-45.7-37.3-64.6-65.9-19.9-29.9-35.7-65-46.8-104.4-11.9-41.5-17.8-85.6-17.8-131.3s5.9-89.8 17.7-131.3c11.1-39.4 26.8-74.5 46.8-104.4 19.1-28.6 40.8-50.7 64.6-65.9 22.9-14.5 46.9-21.9 71.2-21.9s48.4 7.4 71.2 21.9c23.8 15.1 45.7 37.3 64.6 65.9 20.1 29.9 35.8 65 46.9 104.4zM1004.7 160c-9.2-8.5-23.7-8-32.3 1.2L639.7 520.4V176.7c0-12.6-10.2-22.8-22.8-22.8-12.6 0-22.8 10.2-22.8 22.8v663.8c0 12.6 10.2 22.8 22.8 22.8 12.6 0 22.8-10.2 22.8-22.8V587.7l65.4-70.5 256.7 337.2c4.5 5.9 11.3 9 18.2 9 4.9 0 9.6-1.5 13.8-4.7 10-7.6 12-21.9 4.4-32L736.6 483.1 1006 192.2c8.5-9.2 7.9-23.6-1.3-32.2z"/>
    </symbol>
    <symbol id="icon_out" viewBox="0 0 1024 1024">
      <title>icon_out icon</title>
      <path d="M897.8 11.9H260.7c-12.3 0-22.2 10-22.2 22.2v118c0 12.3 10 22.2 22.2 22.2 12.3 0 22.2-10 22.2-22.2V56.4h592.4v911H283v-95.8c0-12.3-10-22.2-22.2-22.2-12.3 0-22.2 10-22.2 22.2v118c0 12.3 10 22.2 22.2 22.2h637c12.3 0 22.2-10 22.2-22.2V34.2c.1-12.3-9.9-22.3-22.2-22.3zM382.3 780.4c5.7 0 11.5-2.2 15.8-6.6 8.7-8.8 8.7-22.8-.1-31.5L180.3 525.6H636c12.3 0 22.2-10 22.2-22.2 0-12.3-10-22.2-22.2-22.2H180.3l217.8-216.7c8.7-8.7 8.8-22.8.1-31.5-8.7-8.8-22.8-8.8-31.5-.1L110.5 487.5c-4.2 4.2-6.6 9.9-6.6 15.8s2.4 11.6 6.6 15.8l256.1 254.8c4.3 4.3 10 6.5 15.7 6.5z"/>
    </symbol>
    <symbol id="icon_pageDown" viewBox="0 0 1024 1024">
      <title>icon_pageDown icon</title>
      <style type="text/css">.st0{fill:#040000;}</style><path class="st0" d="M898.6 416.4c-97.3-48.1-194.7-96.4-292-144.4-148-73.1-295.9-146.2-443.8-219.4-20.9-10.3-41.8-20.6-62.6-31-8.4-4.1-16.8-9.6-26.4-9.6-23.2.8-27.2 22.7-20.5 39.6 11.3 28.5 25 56.3 37.5 84.4 39.8 89.6 79.5 179.2 119.3 268.7 10.7 24.2 24 48.6 28.4 75 7.1 42.4-1.7 79.7-18.6 117.6-38.1 85.6-76.2 171.1-114.2 256.7-16.7 37.5-33.4 75.1-50.1 112.6-7.8 17.6-11.2 45.4 18.9 45.4 10.3-.2 20.8-7.4 29.7-11.7 22.5-11.1 45.1-22.2 67.6-33.4 78.6-38.7 157.2-77.6 235.8-116.4 153.6-75.9 307.1-151.7 460.8-227.6 17.4-8.6 35.7-16.6 51.9-27.3 31-20.3 57.1-52.3 53.1-91.5-4.4-41.3-39.7-70.4-74.8-87.7zm-22.5 145.9c-84.6 41.8-169.2 83.5-253.8 125.4-134.6 66.6-269.2 133.1-403.9 199.6-30.7 15.2-61.4 30.3-92 45.5l141.9-319.2c27.3-61.3 32.6-129.1 4.9-191.6-25-56.4-50.2-112.9-75.3-169.3-23.8-53.6-47.7-107.3-71.5-161 96.8 47.8 193.7 95.7 290.4 143.4 137.7 68 275.4 136.1 413 204.1 14.6 7.3 29.4 14.4 44 21.7 15.1 7.6 30.5 16.5 40.8 30.2 23.4 31.3-12.2 58.3-38.5 71.2z"/>
    </symbol>
    <symbol id="icon_pageUp" viewBox="0 0 1024 1024">
      <title>icon_pageUp icon</title>
      <style type="text/css">.st0{fill:#040000;}</style><path class="st0" d="M970.6 999.8c11.4-19.4-10.6-50.1-18.1-67.1-27.6-62.2-55.3-124.2-82.9-186.4-23.5-52.9-47-105.7-70.5-158.7-21.2-47.7-22.5-100.6-1.2-148.6 50.8-114.2 101.6-228.4 152.4-342.7 7.5-16.9 30.3-49.1 21.9-69.1-13.1-31.2-47.4-6.7-66 2.5C800.7 82 695.3 134.1 589.8 186.2c-122.8 60.6-245.6 121.3-368.4 182-30.5 15.1-61 30.1-91.6 45.3-23 11.4-45.3 25-61.3 45.5-31.4 40.2-20.9 90.4 16 123 24.4 21.4 57 34.5 85.9 48.8 47.2 23.3 94.5 46.7 141.7 70 130.6 64.5 261.1 129.1 391.7 193.5 52.7 26.1 105.4 52 158.1 78.1 24.7 12.2 49.1 26.3 74.6 36.8 12.4 5.1 26.3 3.8 34.1-9.4.1 0-.5 1 0 0zM100.1 512.1c0-37.5 69.2-61.3 98.7-75.9 58.2-28.8 116.5-57.6 174.7-86.3 141-69.6 281.9-139.3 422.8-208.9l100.6-49.7c-47.3 106.4-94.7 212.9-142 319.3-27.3 61.3-32.6 129.2-5 191.8 25 56.6 50.2 113 75.4 169.5 23.8 53.7 47.7 107.3 71.5 161-91-45-181.9-89.8-272.8-134.8-136.2-67.3-272.5-134.6-408.7-201.9-30.5-15.2-115.2-44.6-115.2-84.1z"/>
    </symbol>
    <symbol id="icon_plus" viewBox="0 0 1024 1024">
      <title>icon_plus icon</title>
      <style type="text/css">.st0{fill:#040000;}</style><path class="st0" d="M989.4 489.4H534.6V34.6c0-12.5-10.2-22.6-22.6-22.6s-22.6 10.2-22.6 22.6v454.7H34.6C22.2 489.4 12 499.5 12 512s10.2 22.6 22.6 22.6h454.7v454.7c0 12.5 10.2 22.6 22.6 22.6s22.6-10.2 22.6-22.6V534.6h454.7c12.5 0 22.6-10.2 22.6-22.6.2-12.5-10-22.6-22.4-22.6z"/>
    </symbol>
    <symbol id="icon_pwd" viewBox="0 0 1024 1024">
      <title>icon_pwd icon</title>
      <style type="text/css">.st0{fill:#272636;}</style><path class="st0" d="M848.7 447.8l-554-.9c-.2-74.7-11.4-196.6 43.4-260.8 37.5-43.9 75.3-88 173.9-87 94.3-2.5 180.1 77.7 217.4 173.9 10.9 27.8 20.4 42.7 43.4 43.4 57.8 1.7 54.2-59.2 43.4-87C762.6 90.5 661.4 12 512.1 12c-101.5 0-157.5 20.8-217.4 87-91.7 101-87.2 264.4-87 347.8l-32.3.9c-30.2 0-54.6 24.1-54.6 53.9V958c0 29.9 24.4 54 54.6 54h673.2c30.2 0 54.6-24.1 54.6-54V501.6c.2-29.8-24.3-53.8-54.5-53.8zm-31 433.4c0 12-4.1 22.3-12.7 30.8-8.5 8.5-18.8 12.7-30.8 12.7H251.4c-12 0-22.3-4.2-30.7-12.7-8.5-8.5-12.8-18.8-12.8-30.8V576.3c0-23.9 19.5-43.5 43.5-43.5h522.7c24 0 43.5 19.5 43.5 43.5v304.9h.1z"/>
    </symbol>
    <symbol id="icon_right" viewBox="0 0 1024 1024">
      <title>icon_right icon</title>
      <style type="text/css">.st0{fill:#040000;}</style><path class="st0" d="M278.7 18.8c-9 9-9 23.6 0 32.6l403.6 403.5c31.5 31.5 31.5 82.7 0 114.2L278.7 972.6c-9 9-9 23.6 0 32.6s23.6 9 32.6 0L715 601.7c24.7-24.7 37.1-57.2 37.1-89.7s-12.4-65-37.1-89.7L311.4 18.8c-9-9.1-23.7-9.1-32.7 0z"/>
    </symbol>
    <symbol id="icon_save" viewBox="0 0 1024 1024">
      <title>icon_save icon</title>
      <path d="M896.6 12H127.4C63.8 12 12 63.8 12 127.4v769.2c0 63.6 51.8 115.4 115.4 115.4h769.2c63.6 0 115.4-51.8 115.4-115.4V127.4C1012 63.8 960.2 12 896.6 12zm-113 57.7v355.8c0 15.9-12.9 28.8-28.8 28.8H269.2c-15.9 0-28.8-12.9-28.8-28.8V69.7h543.2zm170.7 826.9c0 31.8-25.9 57.7-57.7 57.7H127.4c-31.8 0-57.7-25.9-57.7-57.7V127.4c0-31.8 25.9-57.7 57.7-57.7h55.3v355.8c0 47.7 38.8 86.5 86.5 86.5h485.6c47.7 0 86.5-38.8 86.5-86.5V69.7h55.3c31.8 0 57.7 25.9 57.7 57.7v769.2zM658.1 379.8c15.9 0 28.8-12.9 28.8-28.8V209.1c0-15.9-12.9-28.8-28.8-28.8s-28.8 12.9-28.8 28.8v141.8c0 16 12.9 28.9 28.8 28.9z"/>
    </symbol>
    <symbol id="icon_scene" viewBox="0 0 1024 1024">
      <title>icon_scene icon</title>
      <path d="M898.3 395.9H276.1l614.2-205.8c39.8-13.4 61.3-56.6 48-96.4l-11.1-32.9c-6.5-19.2-20-34.8-38.2-43.9-18.2-9.1-38.9-10.5-58.1-4l-734.5 246c-19.2 6.5-34.8 20-43.9 38.2s-10.5 38.9-4 58.1l11 33c6.1 18.1 18.4 32.2 33.6 41.2-8.3 12.1-13.2 26.8-13.2 42.7v460.7c0 42 34.2 76.1 76.1 76.1h742.2c42 0 76.1-34.2 76.1-76.1V472.1c.1-42-34.1-76.2-76-76.2zm34.6 76.2V547H657.3l109.5-109.5h131.5c19.1 0 34.6 15.4 34.6 34.6zm-811.4 74.8V472c0-19.1 15.5-34.6 34.6-34.6h225L271.5 546.9h-150zm318.2-109.4H708L598.5 546.9H330.3l109.4-109.4zM89.6 315.6c4.1-8.3 11.2-14.5 19.9-17.4L843.9 52.1c3.6-1.2 7.3-1.8 10.9-1.8 14.5 0 28 9.1 32.9 23.6l11 33c2.9 8.7 2.2 18.1-1.9 26.4-4.1 8.3-11.2 14.5-19.9 17.4L142.6 396.9c-18.1 6.1-37.7-3.7-43.8-21.9l-11.1-33c-2.8-8.6-2.2-18.1 1.9-26.4zm808.7 651.7H156.1c-19.1 0-34.6-15.5-34.6-34.6V588.4H933v344.2c-.1 19.2-15.6 34.7-34.7 34.7z"/>
    </symbol>
    <symbol id="icon_sceneStart" viewBox="0 0 1024 1024">
      <title>icon_sceneStart icon</title>
      <path d="M932 481.1L127.7 16.8c-11-6.4-24.6-6.4-35.7 0-11 6.4-17.8 18.1-17.8 30.9v928.7c0 12.7 6.8 24.5 17.8 30.9 5.5 3.2 11.7 4.8 17.8 4.8s12.3-1.6 17.8-4.8L932 542.9c11-6.4 17.8-18.1 17.8-30.9s-6.8-24.5-17.8-30.9z"/>
    </symbol>
    <symbol id="icon_sceneTimer" viewBox="0 0 1024 1024">
      <title>icon_sceneTimer icon</title>
      <path d="M409.6 93.3h204.8c22.4 0 40.7-18.2 40.7-40.7S636.9 12 614.4 12H409.6c-22.4 0-40.7 18.2-40.7 40.7s18.2 40.6 40.7 40.6zM825.1 250.8l39.8-53.3c11.9-15.9 8.6-38.7-7.4-50.6L824 122c-15.9-11.9-38.7-8.6-50.6 7.4l-39 52.3C669 143.8 593 122 512 122 266.2 122 67 321.2 67 567s199.2 445 445 445 445-199.2 445-445c0-123.7-50.5-235.5-131.9-316.2zm-57.9 475.5c-7.6 12.8-21.1 19.9-35 19.9-7.1 0-14.2-1.8-20.8-5.7l-220.3-131c-12.3-7.3-19.9-20.6-19.9-34.9V314.7c0-22.5 18.2-40.7 40.7-40.7 22.4 0 40.7 18.2 40.7 40.7v236.7L753 670.6c19.4 11.5 25.7 36.4 14.2 55.7z"/>
    </symbol>
    <symbol id="icon_sctDown" viewBox="0 0 1024 1024">
      <title>icon_sctDown icon</title>
      <style type="text/css">.st0{fill:#040000;}</style><path class="st0" d="M1010.2 286.3c-3.6-8.6-12-14.2-21.3-14.2H35c-9.3 0-17.7 5.6-21.3 14.2-3.6 8.6-1.6 18.5 5 25.1L422.4 715c23.8 23.8 55.8 37 89.6 37 34 0 65.8-13.1 89.6-37l403.6-403.6c6.6-6.7 8.6-16.5 5-25.1zm-441.1 396c-15.1 15.1-35.5 23.5-57.1 23.5-21.7 0-41.9-8.4-57.1-23.5L90.6 318.1h842.8L569.1 682.3z"/>
    </symbol>
    <symbol id="icon_sctLeft" viewBox="0 0 1024 1024">
      <title>icon_sctLeft icon</title>
      <style type="text/css">.st0{fill:#040000;}</style><path class="st0" d="M737.7 13.8c8.6 3.6 14.2 12 14.2 21.3V989c0 9.3-5.6 17.7-14.2 21.3s-18.5 1.6-25.1-5L309 601.6c-23.8-23.8-37-55.8-37-89.6 0-34 13.1-65.8 37-89.6L712.6 18.8c6.7-6.6 16.5-8.6 25.1-5zm-396 441.1c-15.1 15.1-23.5 35.5-23.5 57.1 0 21.7 8.4 41.9 23.5 57.1L706 933.4V90.6L341.7 454.9z"/>
    </symbol>
    <symbol id="icon_sctRight" viewBox="0 0 1024 1024">
      <title>icon_sctRight icon</title>
      <style type="text/css">.st0{fill:#040000;}</style><path class="st0" d="M286.3 1010.2c-8.6-3.6-14.2-12-14.2-21.3V35c0-9.3 5.6-17.7 14.2-21.3 8.6-3.6 18.5-1.6 25.1 5L715 422.4c23.8 23.8 37 55.8 37 89.6 0 34-13.1 65.8-37 89.6l-403.6 403.6c-6.7 6.6-16.5 8.6-25.1 5zm396-441.1c15.1-15.1 23.5-35.5 23.5-57.1 0-21.7-8.4-41.9-23.5-57.1L318.1 90.6v842.8l364.2-364.3z"/>
    </symbol>
    <symbol id="icon_sctUp" viewBox="0 0 1024 1024">
      <title>icon_sctUp icon</title>
      <style type="text/css">.st0{fill:#040000;}</style><path class="st0" d="M1010.2 737.7c-3.6 8.6-12 14.2-21.3 14.2H35c-9.3 0-17.7-5.6-21.3-14.2s-1.6-18.5 5-25.1L422.4 309c23.8-23.8 55.8-37 89.6-37 34 0 65.8 13.1 89.6 37l403.6 403.6c6.6 6.7 8.6 16.5 5 25.1zm-441.1-396c-15.1-15.1-35.5-23.5-57.1-23.5-21.7 0-41.9 8.4-57.1 23.5L90.6 705.9h842.8L569.1 341.7z"/>
    </symbol>
    <symbol id="icon_set" viewBox="0 0 1024 1024">
      <title>icon_set icon</title>
      <path d="M1012 596.7V432.9l-166.7-27.2c-5.5-17-12.4-33.6-20.6-49.5l98.7-137-115.7-115.9L670.5 202c-16.3-8.3-33.3-15.3-50.7-20.9L593.2 12H429.4l-26.7 169.5c-16.5 5.4-32.7 12.1-48.2 20L215.7 100.6 99.9 216.4l100.4 137.9c-8.7 16.9-16 34.4-21.8 52.4L12 432.9v163.8l166.4 26.2c5.7 17.6 12.8 34.7 21.3 51.3l-99.2 136.3 115.9 115.8L352.6 827c16.1 8.2 33 15.2 50.2 20.9l26.7 164.1h163.8L620 848.4c18-5.8 35.6-13.1 52.6-21.9l134.6 96.9 115.7-115.7-97.5-135.4c7.8-15.6 14.5-31.9 20-48.4l166.6-27.2zm-201.1-13.1l-8.5 26.1c-4.7 14.4-10.5 28.6-17.5 42.2l-12.3 24.5 15.9 22.2 75 104.3-61.5 61.5-103.4-74.5-22.5-16.1-24.6 12.6c-14.7 7.6-30.1 14-45.7 19.1l-26.3 8.5-4.4 27.2-20.5 125.7h-87L447 840.7l-4.4-27.1-26.1-8.5c-14.9-4.9-29.6-11-43.6-18.2l-24.7-12.6-22.5 16.3-105 76.4-61.3-61.3 76.5-105 16.3-22.5-12.6-24.7c-7.3-14.3-13.5-29.4-18.6-44.6l-8.5-26.4-27.4-4.3-128-20.2v-86.7L185.4 451l27.4-4.3 8.5-26.4c5-15.5 11.4-30.9 19-45.5L253 350l-16.3-22.5L159 220.8l61.3-61.3 107.6 78.2 22.3 16.1 24.6-12.3c13.5-6.8 27.7-12.6 42-17.4l26.3-8.6 4.3-27.3L468 57h86.7l20.7 131 4.3 27.4 26.4 8.5c15 4.8 29.9 11 44 18.2l24.5 12.4 22.3-16L803 162.4l61.5 61.5L788 329.8 772 352l12.4 24.5c7 13.8 13 28.4 17.9 43.1l8.5 26.1 27.1 4.4 128.9 21v87l-128.7 21.2-27.2 4.3zM511.4 318.2c-107.7 0-195.4 87.7-195.4 195.4S403.7 709 511.4 709s195.4-87.7 195.4-195.4-87.7-195.4-195.4-195.4zm0 345.7c-82.8 0-150.3-67.4-150.3-150.3s67.4-150.3 150.3-150.3 150.3 67.4 150.3 150.3c-.1 82.9-67.5 150.3-150.3 150.3z"/>
    </symbol>
    <symbol id="icon_shuttle" viewBox="0 0 1024 1024">
      <title>icon_shuttle icon</title>
      <path d="M673.2 787.9H385.8c-169.3 0-307-137.8-307-307.1v-124c0-18.5-14.9-33.4-33.4-33.4S12 338.3 12 356.7v124.1C12 687 179.7 854.6 385.8 854.6h287.4V938l201.9-116.7-201.9-116.7v83.3zM638.2 169.3H350.8V86l-202 116.7 202 116.7v-83.2h287.4c169.3 0 307 137.8 307 307.1v124.1c0 18.5 14.9 33.4 33.4 33.4s33.4-14.9 33.4-33.4V543.1c0-206-167.7-373.8-373.8-373.8z"/>
    </symbol>
    <symbol id="icon_sleep" viewBox="0 0 1024 1024">
      <title>icon_sleep icon</title>
      <path d="M346.7 523.6c3 8.9 11.2 15 20.6 15.3l126.1 4.3h.8c12.1 0 22.1-9.6 22.5-21.7.4-12.4-9.3-22.8-21.7-23.2l-66.2-2.2 65.5-53.5c6.2-5 9.2-12.9 8-20.8l-5.7-37.6c-1.6-10.6-10.4-18.6-21.1-19.1l-100.6-5c-12.4-.6-23 9-23.6 21.4-.6 12.4 9 23 21.4 23.6l82.2 4.1 1 6.7-102 83.3c-7.4 5.7-10.2 15.5-7.2 24.4zM475.1 128.1h.2l126.9-1.2 4.9 23.1-144 132.5c-6.9 6.3-9.1 16.3-5.6 25 3.4 8.5 11.7 14.1 20.9 14.1h.6l182-4.6c12.4-.3 22.2-10.6 21.9-23.1-.3-12.2-10.3-21.9-22.5-21.9h-.6l-122.1 3 109.4-100.6c5.8-5.4 8.4-13.4 6.8-21.2l-11.4-53.6c-2.2-10.4-11.4-17.8-22-17.8h-.2l-145.4 1.4c-12.4.1-22.4 10.3-22.3 22.7.2 12.3 10.2 22.2 22.5 22.2zM1011.9 413.9c-1.2-12.4-12.3-21.4-24.6-20.1L805 412l149.4-159.5c5.4-5.8 7.4-14 5.2-21.7l-20.5-70.3c-3-10.3-12.8-17-23.5-16.1l-193.4 16.3c-12.4 1-21.6 11.9-20.5 24.3 1 12.4 11.9 21.6 24.3 20.5l175-14.7 11.7 40.3L731.2 425c-6.4 6.8-7.9 16.9-3.7 25.3 3.8 7.7 11.7 12.5 20.2 12.5.7 0 1.5 0 2.3-.1l242-24.2c12.1-1.2 21.2-12.2 19.9-24.6zM667.9 757.1c-20 3.6-40.1 5.4-59.8 5.4-184 0-333.8-149.7-333.8-333.8 0-72.1 22.6-140.7 65.5-198.5 5.5-7.5 5.9-17.5 1-25.4-4.9-7.9-14.2-11.9-23.3-10.1-84.8 16.3-162.3 62.1-218 128.8-27.7 33.2-49.3 70.5-64.3 110.8C19.8 476.1 12 520.1 12 565.1c0 50.9 10 100.3 29.7 146.8 19 44.9 46.2 85.3 80.8 119.9s75 61.8 119.9 80.8c46.5 19.7 95.9 29.7 146.8 29.7 60 0 117.4-13.7 170.6-40.7 50.7-25.7 95.7-63.4 130.1-108.8 5.6-7.4 6.1-17.5 1.3-25.4-4.9-7.9-14.1-12-23.3-10.3zM389.2 897.3C206 897.3 57 748.2 57 565.1c0-139.9 87.7-263 215-310.9-28 53.6-42.5 113-42.5 174.6 0 51.1 10 100.7 29.8 147.4 19.1 45.1 46.4 85.6 81.2 120.4 34.8 34.8 75.3 62.1 120.4 81.2 46.7 19.8 96.3 29.8 147.4 29.8 2.8 0 5.5 0 8.3-.1-61.2 57.6-141.5 89.8-227.4 89.8z"/>
    </symbol>
    <symbol id="icon_smoke" viewBox="0 0 1024 1024">
      <title>icon_smoke icon</title>
      <path d="M286.3 556.3c17.5-74.1 37.3-158 77.1-174.4 16.1-6.7 37.6-1.7 64 14.6l30.9 19.1 3.4-36.1c6-64.1 35.2-116.3 76.4-136 28.2-13.5 59.5-9.7 90.6 10.9 18.3 12.2 14.4 39.7 12.8 47.9-4.8 24.3-18.9 41.5-29.2 43.5-10 2-21-12.8-25.2-19.3-6.8-10.4-20.8-13.2-31.2-6.4-10.4 6.8-13.2 20.8-6.4 31.2 26.7 40.6 56.2 41.6 71.5 38.7 35.2-6.9 57.8-44.6 64.8-79 8-40.3-3.9-75.6-32-94.2-44.3-29.4-92.3-34.4-135-14-47.7 22.8-83.4 75.1-97 140.3-27.7-11.1-53-12.1-75.6-2.8-61 25.2-82.7 117-103.7 205.7-11.6 48.9-23.5 99.6-40.4 125-35.1 52.8-72.7 83.2-102.2 83.2-2.6 0-5.1-.2-7.6-.7-19.8-3.8-30.4-22.3-33.7-38.4-4.7-22.4 1.4-54 32.6-75.5 10.2-7 12.9-21 5.8-31.3-7-10.2-21-12.9-31.3-5.8-21.3 14.6-37.1 34.3-45.9 57.1-8 20.8-9.8 43.2-5.4 64.8 8 38.6 34.6 66.8 69.4 73.5 4.6.9 9.9 1.5 15.8 1.5 32.1 0 83.1-17.5 140-103.3 21.3-32.4 33.7-84.5 46.7-139.8zM1011.2 277.4c-6.7-65.5-60.9-125.3-129-142.3-33-8.2-67-5.7-98.2 7.4-34.7 14.6-65.5 41.4-91.3 79.9-6.9 10.3-4.2 24.3 6.1 31.2 10.3 6.9 24.3 4.2 31.2-6.1 38.5-57.4 88.7-81.9 141.2-68.8 49.4 12.3 90.4 56.7 95.1 103.2 4.2 40.7-20.5 76.3-69.7 99.9-11.2 5.4-15.9 18.8-10.5 30 3.9 8 11.9 12.7 20.3 12.7 3.3 0 6.6-.7 9.7-2.2 34.5-16.6 60.2-38.3 76.5-64.7 15.1-24 21.5-51.9 18.6-80.2zM822.8 393.2c-10.1 7.3-12.3 21.4-5 31.4 15.1 20.8 21.4 50.6 17.8 84-3.8 34.9-18 69.9-40 98.5-35.6 46.2-86 70-144.4 70-22.2 0-45.5-3.4-69.8-10.3 39.8-26.1 66.6-64.9 81.6-118.3 3.4-12-3.6-24.4-15.6-27.8-12-3.4-24.4 3.6-27.8 15.6-27.2 96.7-92.8 112.4-168.7 130.6-44.2 10.6-90.1 21.6-130.4 49.4-46.2 31.9-76.9 80.9-93.5 149.6-2.9 12.1 4.5 24.2 16.6 27.2 1.8.4 3.5.6 5.3.6 10.2 0 19.4-6.9 21.9-17.2 30.7-127.4 104.8-145.2 190.5-165.7 21.9-5.2 44.1-10.6 65.7-18 2.3 2.7 5.3 4.9 8.8 6.2 40.1 15.6 78.7 23.5 115.2 23.5 21.3 0 42-2.7 61.8-8 46.8-12.6 87.8-40.2 118.2-79.7 57.1-74.1 67.2-175.6 23.1-236.4-7.1-10.2-21.2-12.5-31.3-5.2z"/>
    </symbol>
    <symbol id="icon_STB" viewBox="0 0 1024 1024">
      <title>icon_STB icon</title>
      <path d="M999 717.7c-7.2-10.5-20.6-33.1-32.5-53.1-9.4-15.8-18.6-31.1-24.8-40.9-17.6-27.7-37.3-53.8-56.3-79.2-7.3-9.7-14.6-19.5-21.8-29.3-2.4-3.3-4.7-6.7-7.1-9.9-17.4-24.3-35.3-49.6-67.5-58.6-12.4-3.5-24.6-4.8-36.7-5.4v-311c0-33-26.9-60-60-60s-60 26.9-60 60v310.4c-9.8 0-19.6 0-29.4.1-21 .1-41.9.1-63 .1l-233.4-.1c-4.1 0-8.4-.1-12.6-.1-22.3-.3-47.6-.7-71.9 7.9-27.4 9.6-43.1 30.5-58.4 50.7l-2.9 3.8c-25.2 33.3-46.7 65.1-69.2 98.9l-8.1 12c-20 29.8-43 70.2-63.4 111.1-5 8.8-8 18.9-8 29.8v138.8c0 33 26.9 60 60 60h880c33 0 60-26.9 60-60V754.8c-.1-13.9-4.9-26.9-13-37.1zM692.4 114.6c8.6 0 15.8 7.3 15.8 15.8v310.5c-10.5-.1-21-.1-31.5-.1V130.3c-.1-8.6 7.1-15.7 15.7-15.7zm-572.2 524l8.1-12.1c22.2-33.2 43.2-64.5 67.7-96.8l2.9-3.9c12.8-17 23-30.4 37.8-35.7 16.8-6 36.2-5.7 56.6-5.4 4.4.1 8.9.1 13.3.1l233.4.1c21 0 42.1 0 63.2-.1 42-.1 84-.2 126 .2h3.3c16 .1 30.9.2 44.5 4.1 17.2 4.8 29.4 21.9 43.5 41.7 2.4 3.4 4.9 6.9 7.5 10.4 7.3 9.9 14.6 19.8 22.1 29.7 18.5 24.6 37.7 50.2 54.3 76.4 6.1 9.6 14.9 24.4 24.1 39.9 1.5 2.5 3 5 4.5 7.7H86c11.7-21 23.5-40.6 34.2-56.3zm847.6 255.1c0 8.7-7.1 15.8-15.8 15.8H72c-8.6 0-15.8-7.3-15.8-15.8V754.8c0-2.3.6-4.6 1.5-6.7.2-.4.4-.9.6-1.3 2.8-4.6 7.9-7.8 13.5-7.8h880c8.6 0 15.8 7.3 15.8 15.8v138.9h.2z"/><circle cx="879.7" cy="824.3" r="44.9"/><circle cx="750" cy="824.3" r="44.9"/><path d="M641.8 779.3H98.9c-.5 0-1 .5-1 1v87.9c0 .5.5 1 1 1h542.9c.5 0 1-.5 1-1v-87.9c0-.5-.5-1-1-1z"/>
    </symbol>
    <symbol id="icon_stick" viewBox="0 0 1024 1024">
      <title>icon_stick icon</title>
      <style type="text/css">.st0{fill:#272636;}</style><path class="st0" d="M130.3 63.3h763.4c14.2 0 25.7-11.5 25.7-25.7S907.9 12 893.7 12H130.3c-14.2 0-25.7 11.5-25.7 25.7s11.5 25.6 25.7 25.6zM924.4 574L530.1 179.8c-10-10-26.3-10-36.3 0L99.6 574c-10 10-10 26.3 0 36.3 10 10 26.3 10 36.3 0l350.4-350.4v726.4c0 14.2 11.5 25.7 25.7 25.7s25.7-11.5 25.7-25.7V259.9l350.4 350.4c5 5 11.6 7.5 18.1 7.5s13.1-2.5 18.1-7.5c10.1-10 10.1-26.3.1-36.3z"/>
    </symbol>
    <symbol id="icon_strong" viewBox="0 0 1024 1024">
      <title>icon_strong icon</title>
      <style type="text/css">.st0{fill:#272636;}</style><path class="st0" d="M999.5 815.9c-.4-.8-.9-1.5-1.4-2.2l-13.7-19.4c-.1-.1-.1-.2-.2-.3l-519-736.5c-3.8-5.4-10.1-8.7-16.8-8.7H122.7c-4.2 0-8.4 1.3-11.9 3.8-2.6 1.8-63.4 46.1-44.2 140.8 18.5 91.3 84.7 104.4 87.5 104.9 2.7.5 5.5.4 8.3-.2l151.2-34.5L459.1 537c-55.5-28.3-126.3-45.6-195.8-45.6C120 491.3 12 592.3 12 726.1c0 137.2 111.6 248.8 248.8 248.8h635.7c1 .2 2.2.3 3.3.3 1.3 0 2.6-.1 3.8-.3 59.8 0 108.4-48.6 108.4-108.5 0-17.5-4.3-35-12.5-50.5zm-95.9 118c-1.2 0-2.5.1-3.7.2-1.2-.1-2.4-.2-3.7-.2H260.8C146.2 933.9 53 840.7 53 726.1c0-110.5 90.4-193.7 210.2-193.7 107.8 0 201.6 43.6 239.7 87.1l68.9 129.4c3.7 6.9 10.8 10.9 18.1 10.9 3.2 0 6.5-.8 9.6-2.4 10-5.3 13.8-17.7 8.5-27.7L354.9 254.1l20.7-4.7c11-2.5 17.9-13.5 15.4-24.6-2.5-11-13.5-18.1-24.6-15.4l-208.3 47.5c-10.4-3.7-40.7-18.7-51.4-71.7-11.1-55 13.1-85.3 23.4-95.4h307.5l513.1 728c.1.1.1.2.2.3l12.8 18.1c4.7 9.3 7.2 19.8 7.2 30.3.1 37.2-30.2 67.4-67.3 67.4z"/>
    </symbol>
    <symbol id="icon_sun" viewBox="0 0 1024 1024">
      <title>icon_sun icon</title>
      <path d="M512 762.1c-137.9 0-250.2-112.2-250.2-250.1S374.1 261.9 512 261.9 762.2 374.1 762.2 512 649.9 762.1 512 762.1zm0-460.2c-115.8 0-210.1 94.2-210.1 210.1S396.2 722.1 512 722.1 722.1 627.8 722.1 512 627.8 301.9 512 301.9zM512 190.3c-11.1 0-20-9-20-20V32c0-11.1 9-20 20-20s20 9 20 20v138.2c0 11.1-8.9 20.1-20 20.1zM512 1012c-11.1 0-20-9-20-20V853.7c0-11.1 9-20 20-20s20 9 20 20v138.2c0 11.1-8.9 20.1-20 20.1zM270.3 290.3c-5.1 0-10.2-2-14.2-5.9l-97.8-97.7c-7.8-7.8-7.8-20.5 0-28.3 7.8-7.8 20.5-7.8 28.3 0l97.8 97.7c7.8 7.8 7.8 20.5 0 28.3-3.8 4-9 5.9-14.1 5.9zM851.4 871.4c-5.1 0-10.2-2-14.2-5.9l-97.8-97.6c-7.8-7.8-7.8-20.5 0-28.3s20.5-7.8 28.3 0l97.8 97.7c7.8 7.8 7.8 20.5 0 28.3-3.8 3.9-9 5.8-14.1 5.8zM170.3 532H31.9c-11.1 0-20-9-20-20s9-20 20-20h138.2c11.1 0 20 9 20 20s-8.8 20-19.8 20zM992.1 532H853.7c-11.1 0-20-9-20-20s9-20 20-20H992c11.1 0 20 9 20 20s-8.9 20-19.9 20zM172.6 871.4c-5.1 0-10.2-2-14.2-5.9-7.8-7.8-7.8-20.5 0-28.3l97.8-97.7c7.8-7.8 20.5-7.8 28.3 0 7.8 7.8 7.8 20.5 0 28.3l-97.8 97.7c-3.9 4-9 5.9-14.1 5.9zM753.7 290.3c-5.1 0-10.2-2-14.2-5.9-7.8-7.8-7.8-20.5 0-28.3l97.8-97.7c7.8-7.8 20.5-7.8 28.3 0 7.8 7.8 7.8 20.5 0 28.3l-97.7 97.8c-4 3.9-9.1 5.8-14.2 5.8z"/>
    </symbol>
    <symbol id="icon_temperature" viewBox="0 0 1024 1024">
      <title>icon_temperature icon</title>
      <path d="M629.4 623.6l-3.8-2.8V130.1C625.6 65 574.7 12 512 12S398.4 65 398.4 130.1v490.7l-3.8 2.8c-54.7 40-87.4 105.4-87.4 175 0 117.7 91.9 213.5 204.8 213.5s204.8-95.8 204.8-213.5c0-69.7-32.6-135.2-87.4-175zM512 966.9c-88.1 0-159.7-75.6-159.7-168.5 0-55.2 25.7-107 69-138.6l22.2-16.2V130.1c0-40.2 30.8-73 68.6-73s68.6 32.7 68.6 73v513.7l22.2 16.3c43.1 31.4 68.9 83.3 68.9 138.5-.1 92.7-71.7 168.3-159.8 168.3zM534.5 689.9V349.4c0-12.4-10.1-22.5-22.5-22.5s-22.5 10.1-22.5 22.5v340.5c-51.2 10.4-89.8 55.8-89.8 110 0 62.1 50.2 112.3 112.3 112.3S624.3 862 624.3 799.9c0-54.3-38.5-99.6-89.8-110z"/>
    </symbol>
    <symbol id="icon_time" viewBox="0 0 1024 1024">
      <title>icon_time icon</title>
      <path d="M972.7 317.4c-25.2-59.5-61.2-113-107.2-158.9-45.9-45.9-99.4-82-158.9-107.2C644.9 25.2 579.5 12 512 12S379.1 25.2 317.4 51.3c-59.5 25.2-113 61.2-158.9 107.2-45.9 45.9-82 99.4-107.2 158.9C25.2 379.1 12 444.5 12 512s13.2 132.9 39.3 194.6c25.2 59.5 61.2 113 107.2 158.9 45.9 45.9 99.4 82 158.9 107.2 61.7 26.1 127.2 39.3 194.6 39.3s132.9-13.2 194.6-39.3c59.5-25.2 113-61.2 158.9-107.2 45.9-45.9 82-99.4 107.2-158.9 26.1-61.7 39.3-127.2 39.3-194.6s-13.2-132.9-39.3-194.6zM512 967.2C261 967.2 56.8 763 56.8 512S261 56.8 512 56.8 967.2 261 967.2 512 763 967.2 512 967.2zM534.4 502.7v-341c0-12.3-10-22.4-22.4-22.4-12.3 0-22.4 10-22.4 22.4V512c0 6 2.4 11.6 6.6 15.8l192.5 192.5c4.4 4.4 10.1 6.6 15.8 6.6 5.7 0 11.4-2.2 15.8-6.6 8.8-8.8 8.8-22.9 0-31.6l-185.9-186z"/>
    </symbol>
    <symbol id="icon_TV" viewBox="0 0 1024 1024">
      <title>icon_TV icon</title>
      <path d="M949.5 129.1H74.6c-34.4 0-62.5 28.1-62.5 62.5v566.6c0 34.4 28.1 62.5 62.5 62.5h874.9c34.4 0 62.5-28.1 62.5-62.5V191.6c-.1-34.4-28.2-62.5-62.5-62.5zm18.7 629.1c0 10.1-8.6 18.7-18.7 18.7H74.6c-10.1 0-18.7-8.6-18.7-18.7V191.6c0-10.1 8.6-18.7 18.7-18.7h874.9c10.1 0 18.7 8.6 18.7 18.7v566.6zM821.1 851.1H202.9c-12 0-21.9 9.8-21.9 21.9s9.8 21.9 21.9 21.9h618.2c12 0 21.9-9.8 21.9-21.9s-9.9-21.9-21.9-21.9zM474.5 362.1H287c-12 0-21.9 9.8-21.9 21.9 0 12 9.8 21.9 21.9 21.9h71.9v171.8c0 12 9.8 21.9 21.9 21.9s21.9-9.8 21.9-21.9V405.8h71.9c12 0 21.9-9.8 21.9-21.9-.2-12-9.9-21.8-22-21.8zM744.3 364.3c-10.8-5.3-24-.8-29.2 10l-70.6 143.9-72.2-144.1c-5.4-10.8-18.5-15.2-29.3-9.7-10.8 5.4-15.2 18.5-9.7 29.3L645 616.8l109.4-223.3c5.1-10.7.7-23.9-10.1-29.2z"/>
    </symbol>
    <symbol id="icon_unauthorizedUser" viewBox="0 0 1024 1024">
      <title>icon_unauthorizedUser icon</title>
      <path d="M906.7 784.9c15.2-9.2 19.9-28.9 10.8-44-58.1-95.7-146-164.8-248.1-198.7 83.1-49.9 138.9-141 138.9-244.8C808.4 140 680.3 12 522.9 12S237.6 140 237.6 297.4c0 103.9 56 195.2 139.3 245.1C193.8 603.7 61.7 776.6 61.7 980c0 17.7 14.3 32 32 32s32-14.3 32-32c0-219 178.2-397.2 397.2-397.2 140 0 267.1 71.5 339.8 191.4 9.2 15.1 28.9 19.9 44 10.7zM301.6 297.4c0-122 99.3-221.3 221.3-221.3s221.3 99.3 221.3 221.3-99.3 221.3-221.3 221.3-221.3-99.3-221.3-221.3z"/><circle cx="585.4" cy="955.9" r="49.7"/><circle cx="749.1" cy="955.9" r="49.7"/><circle cx="912.7" cy="955.9" r="49.7"/>
    </symbol>
    <symbol id="icon_up" viewBox="0 0 1024 1024">
      <title>icon_up icon</title>
      <style type="text/css">.st0{fill:#040000;}</style><path class="st0" d="M1005.2 745.3c-9 9-23.6 9-32.6 0L569.1 341.6c-31.5-31.5-82.7-31.5-114.2 0L51.4 745.3c-9 9-23.6 9-32.6 0s-9-23.6 0-32.6L422.3 309c24.7-24.7 57.2-37.1 89.7-37.1s65 12.4 89.7 37.1l403.5 403.5c9.1 9.1 9.1 23.8 0 32.8z"/>
    </symbol>
    <symbol id="icon_user" viewBox="0 0 1024 1024">
      <title>icon_user icon</title>
      <path d="M658.2 542.4c83.3-49.9 139.3-141 139.3-245.1C797.4 140 669.4 12 512 12S226.6 140 226.6 297.4c0 103.9 56 195.2 139.3 245.1C183 603.6 50.8 776.6 50.8 980c0 17.7 14.3 32 32 32s32-14.3 32-32c0-219 178.2-397.2 397.2-397.2S909.2 761 909.2 980c0 17.7 14.3 32 32 32s32-14.3 32-32c.1-203.4-132.1-376.3-315-437.6zm-367.5-245C290.7 175.3 390 76 512 76s221.3 99.3 221.3 221.3S634 518.7 512 518.7s-221.3-99.3-221.3-221.3z"/>
    </symbol>
    <symbol id="icon_userControl" viewBox="0 0 1024 1024">
      <title>icon_userControl icon</title>
      <path d="M524.5 571.5c77.4-41 130.2-122.4 130.2-216.1 0-134.7-109.6-244.3-244.3-244.3S166 220.7 166 355.4c0 93.5 52.8 174.9 130.2 216.1C132 620.7 12 773.2 12 953.2c0 12.4 10.1 22.5 22.5 22.5S57 965.6 57 953.2c0-194.8 158.5-353.3 353.3-353.3s353.3 158.5 353.3 353.3c0 12.4 10.1 22.5 22.5 22.5s22.5-10.1 22.5-22.5c.2-180-119.8-332.5-284.1-381.7zM211.1 355.4c0-109.9 89.4-199.4 199.4-199.4s199.3 89.5 199.3 199.4-89.4 199.4-199.4 199.4-199.3-89.4-199.3-199.4zM757.5 488.8c61.5-45.7 99.2-118.1 99.2-196.2 0-134.7-109.6-244.3-244.3-244.3-6.4 0-12.6.2-18.9.7-12.4.9-21.7 11.8-20.7 24.1.9 12.4 11.8 21.7 24.1 20.8 5.1-.4 10.2-.6 15.5-.6 109.9 0 199.4 89.4 199.4 199.4 0 78.2-46.6 149.6-118.6 181.9-8.8 3.9-14 13-13.2 22.6.9 9.6 7.8 17.6 17.1 19.8 159 38.4 270 179.6 270 343.4 0 12.4 10.1 22.5 22.5 22.5s22.5-10.1 22.5-22.5c-.1-166.9-102.5-313.1-254.6-371.6z"/>
    </symbol>
    <symbol id="icon_wallSocket" viewBox="0 0 1024 1024">
      <title>icon_wallSocket icon</title>
      <path d="M965.9 12H58.1C32.7 12 12 32.7 12 58.1V966c0 25.4 20.7 46.1 46.1 46.1H966c25.4 0 46.1-20.7 46.1-46.1V58.1C1012 32.7 991.3 12 965.9 12zm6.6 953.9c0 3.6-3 6.6-6.6 6.6H58.1c-3.6 0-6.6-3-6.6-6.6V58.1c0-3.6 3-6.6 6.6-6.6H966c3.6 0 6.6 3 6.6 6.6v907.8zM903.4 107.4H120.6c-7.3 0-13.2 5.9-13.2 13.2v782.9c0 7.3 5.9 13.2 13.2 13.2h782.9c7.3 0 13.2-5.9 13.2-13.2V120.6c-.1-7.3-6-13.2-13.3-13.2zm-13.1 782.9H133.7V133.7h756.6v756.6zM512 629.3c10.9 0 19.7-8.8 19.7-19.7V498.8c0-10.9-8.8-19.7-19.7-19.7-10.9 0-19.7 8.8-19.7 19.7v110.8c0 10.9 8.8 19.7 19.7 19.7zM383.6 651.1c-9.4 5.4-12.7 17.5-7.2 27l55.4 95.9c3.6 6.3 10.3 9.9 17.1 9.9 3.4 0 6.7-.8 9.9-2.6 9.4-5.4 12.7-17.5 7.2-27l-55.4-95.9c-5.5-9.5-17.6-12.8-27-7.3zM565.3 781.2c3.1 1.8 6.5 2.6 9.9 2.6 6.8 0 13.5-3.5 17.1-9.9l55.4-95.9c5.4-9.4 2.2-21.5-7.2-27-9.4-5.4-21.5-2.2-27 7.2l-55.4 95.9c-5.5 9.6-2.3 21.7 7.2 27.1zM609.2 388.1c14.5 0 26.3-11.8 26.3-26.3v-10.7h11c24.7 0 44.7-20 44.7-44.7 0-24.7-20-44.7-44.7-44.7h-11V251c0-14.5-11.8-26.3-26.3-26.3s-26.3 11.8-26.3 26.3v110.8c-.1 14.5 11.7 26.3 26.3 26.3zM377.5 351.1h11v10.7c0 14.5 11.8 26.3 26.3 26.3s26.3-11.8 26.3-26.3V251c0-14.5-11.8-26.3-26.3-26.3s-26.3 11.8-26.3 26.3v10.7h-11c-24.7 0-44.7 20-44.7 44.7.1 24.7 20.1 44.7 44.7 44.7z"/>
    </symbol>
    <symbol id="icon_warning" viewBox="0 0 1024 1024">
      <title>icon_warning icon</title>
      <path d="M512 12C235.8 12 12 235.8 12 512s223.8 500 500 500 500-223.8 500-500S788.2 12 512 12zm-74.9 183.6c0-41.4 33.5-75.1 75.1-75.1 41.5 0 75.1 33.5 75.1 75.1v415.7c0 41.4-33.5 75.1-75.1 75.1-41.5 0-75.1-33.5-75.1-75.1V195.6zM512 903.4c-42.7 0-77.4-34.6-77.4-77.4 0-42.7 34.6-77.4 77.4-77.4s77.4 34.6 77.4 77.4c0 42.8-34.7 77.4-77.4 77.4z"/>
    </symbol>
    <symbol id="icon_water" viewBox="0 0 1024 1024">
      <title>icon_water icon</title>
      <path d="M61.1 701.2c4.3 3.8 9.6 5.7 14.9 5.7 6.2 0 12.4-2.6 16.8-7.6 23.2-26.1 108.1-78.6 155.4-80.1 20.1-.6 46.6 16.9 72.2 33.9 31.1 20.6 63.4 42 97.8 42 32.8 0 65.3-20.2 96.6-39.8 29.6-18.4 60.3-37.6 85.9-36.2 22.2 1.2 44.4 16.7 67.8 33.1 30 21 63.9 44.8 107.1 44.8 2.7 0 5.5-.1 8.3-.3 78.5-5.5 173.6-79.3 177.6-82.4 9.8-7.7 11.5-21.8 3.8-31.6s-21.8-11.5-31.6-3.8c-24.2 19-99 69.2-152.9 72.9-31.2 2.2-58.1-16.5-86.4-36.5-27.6-19.3-56.2-39.3-91.2-41.2-39.9-2.2-76.6 20.7-112.2 43-25.9 16.2-52.8 32.9-72.8 32.9-20.8 0-47.4-17.5-72.9-34.5-31.4-20.8-64-42.5-98.4-41.4-37.6 1.2-82.6 22.9-106.2 35.9-34.6 18.9-65.8 41.7-81.5 59.4-8.2 9.3-7.4 23.6 1.9 31.8zM61.1 851c4.3 3.8 9.6 5.7 14.9 5.7 6.2 0 12.4-2.6 16.8-7.6C116 823 200.9 770.5 248.2 769c20.1-.6 46.6 16.9 72.2 33.9 31.1 20.6 63.4 42 97.8 42 32.8 0 65.3-20.2 96.6-39.8 29.6-18.4 60.3-37.6 85.9-36.2 22.2 1.2 44.4 16.7 67.8 33.1 30 21 63.9 44.8 107.1 44.8 2.7 0 5.5-.1 8.3-.3 78.5-5.5 173.6-79.3 177.6-82.4 9.8-7.7 11.5-21.8 3.8-31.6s-21.8-11.5-31.6-3.9c-.9.7-88.2 68.5-152.9 73-31.2 2.2-58-16.5-86.4-36.5-27.6-19.3-56.2-39.3-91.2-41.2-39.9-2.2-76.6 20.7-112.2 43-25.9 16.2-52.8 32.9-72.8 32.9-20.8 0-47.4-17.5-72.9-34.5-31.4-20.8-64-42.5-98.4-41.4-37.6 1.2-82.6 22.9-106.2 35.9-34.5 18.8-65.7 41.6-81.4 59.3-8.3 9.4-7.5 23.6 1.8 31.9zM934 879.9c-24.2 19-99 69.2-152.9 72.9-31.2 2.2-58.1-16.5-86.4-36.5-27.6-19.3-56.2-39.3-91.2-41.2-39.9-2.2-76.6 20.7-112.2 43-25.9 16.2-52.8 32.9-72.8 32.9-20.8 0-47.4-17.5-72.9-34.5-31.4-20.8-64-42.5-98.4-41.4-37.6 1.2-82.6 22.9-106.2 35.9-34.6 18.9-65.8 41.7-81.5 59.4-8.3 9.3-7.4 23.5 1.9 31.8 4.3 3.8 9.6 5.7 14.9 5.7 6.2 0 12.4-2.6 16.8-7.6 23.2-26.1 108.1-78.6 155.4-80.1 20.1-.6 46.6 16.9 72.2 33.9 31.1 20.6 63.4 42 97.8 42 32.8 0 65.3-20.2 96.6-39.8 29.6-18.4 60.3-37.6 85.9-36.2 22.2 1.2 44.4 16.7 67.8 33.1 30 21 63.9 44.8 107.1 44.8 2.7 0 5.5-.1 8.3-.3 78.5-5.5 173.6-79.3 177.6-82.4 9.8-7.7 11.5-21.8 3.8-31.6-7.6-9.8-21.9-11.5-31.6-3.8zM120 416.9c5.4 0 10.7-1.9 15-5.8l63.5-57.1v161.8c0 12.4 10.1 22.5 22.5 22.5s22.5-10.1 22.5-22.5V318.5c0-1.5-.2-3-.4-4.5L515.9 69l240.4 223.1c-1.8 3.3-2.9 7-2.9 11v261.1c0 12.4 10.1 22.5 22.5 22.5s22.5-10.1 22.5-22.5V331.3l68.4 63.5c9.1 8.5 23.3 7.9 31.8-1.2s7.9-23.3-1.2-31.8L516.4 8 104.9 377.6c-9.2 8.3-10 22.5-1.7 31.8 4.5 5 10.6 7.5 16.8 7.5zM595.8 534.1c12.4 0 22.5-10.1 22.5-22.5V304H405.6v251.4c0 12.4 10.1 22.5 22.5 22.5s22.5-10.1 22.5-22.5V349.1h122.5v162.4c.2 12.5 10.2 22.6 22.7 22.6z"/>
    </symbol>
    <symbol id="icon_windDirection" viewBox="0 0 1024 1024">
      <title>icon_windDirection icon</title>
      <path d="M1011.8 33.1V33l-.3-2.1v-.1c-.1-.7-.3-1.3-.5-2.1v-.2c-.2-.6-.4-1.3-.7-2 0-.1-.1-.1-.1-.2-.2-.6-.5-1.2-.8-1.9 0-.1-.1-.2-.1-.2-.3-.6-.6-1.1-1-1.8 0-.1-.1-.2-.1-.2-.4-.6-.8-1.1-1.2-1.7l-.1-.1c-.9-1.2-2.1-2.3-3.3-3.3l-.1-.1c-.5-.4-1.1-.8-1.7-1.2-.1-.1-.2-.1-.2-.1-.5-.4-1.1-.7-1.8-1-.1 0-.2-.1-.2-.1-.6-.3-1.2-.6-1.9-.8-.1 0-.1-.1-.2-.1-.6-.2-1.2-.5-2-.7h-.2c-.6-.2-1.3-.3-2.1-.5h-.1c-.7-.1-1.3-.2-2.1-.3-.7-.1-1.4-.1-2.2-.1H432.9c-12.8 0-23.2 10.4-23.2 23.2s10.4 23.2 23.2 23.2h499.7L570.2 421c-9.1 9.1-9.1 23.7 0 32.8 4.5 4.5 10.5 6.8 16.4 6.8 5.9 0 11.9-2.3 16.4-6.8L965.5 91.5v493.9c0 12.8 10.4 23.2 23.2 23.2s23.2-10.4 23.2-23.2v-550c0-.8 0-1.6-.1-2.3zM1006.8 864.5c.5-.6.9-1.1 1.3-1.8 2.1-3.1 3.4-6.7 3.8-10.5.1-.7.1-1.5.1-2.3s0-1.5-.1-2.3c-.4-3.9-1.8-7.5-3.8-10.5-.4-.6-.8-1.2-1.3-1.8-.5-.6-1-1.1-1.5-1.7l-139-139.2c-9.1-9.1-23.7-9.1-32.8 0-9.1 9.1-9.1 23.7 0 32.8l98.3 98.3c-239.6-8.2-415.2-69.2-535.5-185.8-124.5-120.5-189.4-299.9-198-547.4l98.3 98.3c4.5 4.5 10.5 6.8 16.4 6.8s11.9-2.3 16.4-6.8c9.1-9.1 9.1-23.7 0-32.8L190.6 18.9c-.5-.5-1.1-1-1.8-1.5l-.1-.1c-.5-.4-1.1-.8-1.7-1.2-.1-.1-.2-.1-.2-.2-.5-.4-1.1-.7-1.8-1-.1 0-.2-.1-.3-.1-.6-.3-1.2-.6-1.9-.8-.1 0-.1-.1-.2-.1-.6-.2-1.2-.5-2-.7h-.2c-.6-.2-1.3-.3-2.1-.5h-.1c-.7-.1-1.3-.2-2.1-.3h-.1c-.7-.1-1.4-.1-2.2-.1s-1.4 0-2.2.1h-.1l-2.1.3h-.1c-.7.1-1.3.3-2.1.5h-.2c-.6.2-1.3.4-2 .7-.1 0-.1.1-.2.1-.6.2-1.2.5-1.9.8-.1 0-.2.1-.3.1-.6.3-1.1.6-1.8 1-.1.1-.2.1-.2.1-.6.4-1.1.8-1.7 1.2l-.1.1c-.6.5-1.1 1-1.8 1.5l-138.7 139c-9.1 9.1-9.1 23.7 0 32.8 9.1 9.1 23.7 9.1 32.8 0L151.9 90.4c4 121.1 21.5 228.6 52 320.2 35.2 105.4 89 193.8 160 262.6C433.8 740.9 522.6 791.9 628 825c88.1 27.6 190.7 43.4 305.6 47.2L833.5 972.3c-9.1 9.1-9.1 23.7 0 32.8 4.5 4.5 10.5 6.8 16.4 6.8 5.9 0 11.9-2.3 16.4-6.8l138.9-138.9c.6-.5 1.1-1.1 1.6-1.7-.1.1-.1 0 0 0z"/>
    </symbol>
    <symbol id="icon_windowOpener" viewBox="0 0 1024 1024">
      <title>icon_windowOpener icon</title>
      <path d="M882.1 12.1H141.9c-12.2 0-22.1 9.9-22.1 22.1V990c0 12.2 9.9 22.1 22.1 22.1H882c12.2 0 22.1-9.9 22.1-22.1V34.2c0-12.3-9.8-22.1-22-22.1zm-22.2 955.7H164.1V56.2h696v911.6h-.2zM183.9 927.9c2.1 24.6 31.2 20.2 48.3 20.2h546.2c23.2 0 61.1 7.3 61.8-26 .7-32.1 0-64.4 0-96.6V110.4c0-12.9.9-27.5-14.3-33.1-8.4-3.1-20.1-1.4-28.8-1.4H252.4c-23.1 0-66.8-8.6-68.6 24.4-1.7 30.1 0 60.7 0 90.8V910.5c0 5.7-.5 11.7.1 17.4.1.6 0-.2 0 0zm371.3-151.5l13.8-9.3L673 904H280.5l251.1-162.7 23.6 35.1zm240.9 127.5h-67.5L605.8 742.4l10.7-7.3-23-34.1 44.2-28.7h.1c.6-.4 1.1-.8 1.6-1.2.1 0 .1-.1.2-.1.5-.4 1-.8 1.4-1.3l.2-.2c.4-.4.9-.9 1.3-1.4l.2-.2c.4-.5.8-1 1.2-1.6 0 0 0-.1.1-.1 1.9-2.8 3.2-6.2 3.6-9.8v-.1c.1-.6.1-1.3.1-1.9V120.1H796v783.8h.1zM603.7 120.1v521.7l-34.8 22.6-3.4-5.2-61.3 41.2 2.7 4.1-279 180.8V120.1h375.8zM548.7 342.4c12.2 0 22.1-9.9 22.1-22.1V176.6c0-12.2-9.9-22.1-22.1-22.1-12.2 0-22.1 9.9-22.1 22.1v143.7c0 12.2 9.9 22.1 22.1 22.1zM311.6 319.6c1.5.9 3.1 1.3 4.7 1.3 3.2 0 6.4-1.7 8.2-4.6l80.9-138c2.6-4.5 1.1-10.3-3.3-12.9-4.5-2.6-10.3-1.1-12.9 3.3l-80.9 138c-2.7 4.4-1.2 10.3 3.3 12.9zM284.8 491.4c1.4.7 2.8 1 4.3 1 3.4 0 6.8-1.9 8.4-5.2l126.8-245.8c2.4-4.6.6-10.3-4-12.7-4.6-2.4-10.3-.5-12.7 4l-126.9 246c-2.4 4.6-.6 10.3 4.1 12.7z"/>
    </symbol>
    <symbol id="icon_windSpeed" viewBox="0 0 1024 1024">
      <title>icon_windSpeed icon</title>
      <path d="M935.5 327.3c-49.3-49.3-114.9-76.5-184.7-76.5S615.5 278 566.2 327.3c-12 12-22.6 24.9-31.9 38.6V34.3c0-12.3-10-22.3-22.3-22.3-69.7 0-135.3 27.1-184.7 76.5s-76.5 114.9-76.5 184.7 27.1 135.3 76.5 184.7c12 12 24.9 22.6 38.6 31.9H34.3C22 489.7 12 499.7 12 512c0 69.7 27.1 135.3 76.5 184.7 49.3 49.3 114.9 76.5 184.7 76.5s135.3-27.1 184.7-76.5c12-12 22.6-24.9 31.9-38.6v331.7c0 12.3 10 22.3 22.3 22.3 69.7 0 135.3-27.1 184.7-76.5 49.3-49.3 76.5-114.9 76.5-184.7S746 615.5 696.7 566.2c-12-12-24.9-22.6-38.6-31.9h331.7c12.3 0 22.3-10 22.3-22.3-.1-69.7-27.2-135.3-76.6-184.7zm-640.1-54.2c0-111.9 85.3-204.3 194.3-215.5v430.9c-109-11.1-194.3-103.5-194.3-215.4zm-22.3 455.5c-111.9 0-204.3-85.3-215.5-194.3h430.9c-11.1 109-103.5 194.3-215.4 194.3zm455.5 22.3c0 111.9-85.3 204.3-194.3 215.5v-431c109 11.2 194.3 103.6 194.3 215.5zM535.4 489.7c11.2-109 103.5-194.3 215.5-194.3s204.3 85.3 215.5 194.3h-431z"/>
    </symbol></svg>